<?xml version="1.0" encoding="UTF-8"?>
<!-- リフテン　ハームフリッド（衛兵長。地下に降りない）　刷り上がり 18mm　※肖像ではない -->
<svg xmlns:xlink="http://www.w3.org/1999/xlink" class="bust" viewBox="0 0 100 120" xmlns="http://www.w3.org/2000/svg"><defs><clipPath id="hcholdRiftp3"><path d="M 50 17 C 66.34 18, 69 30, 69 41 C 69 51, 63.68 59.040000000000006, 50 69.12 C 36.32 59.040000000000006, 31 51, 31 41 C 31 30, 33.66 18, 50 17 Z"/></clipPath></defs><rect width="100" height="120" fill="#fff"/><clipPath id="e2116"><path d="M 50 67 C 42 68, 34 71, 28 76 C 22 80, 17 84, 14 90 C 10 98, 8 108, 7 120 L 93 120 C 92 108, 90 98, 86 90 C 83 84, 78 80, 72 76 C 66 71, 58 68, 50 67 Z"/></clipPath><g clip-path="url(#e2116)" fill="#1b1b1a"><path d="M 44.44 10.85 Q 99.77 48.15 138.24 72.75 Q 100.49 47.05 44.44 10.85 ZM 35.91 6.88 Q 76.48 34.19 128.21 67.10 Q 77.25 33.01 35.91 6.88 ZM 46.38 13.92 Q 82.27 39.11 127.29 69.11 Q 82.93 38.15 46.38 13.92 ZM 37.30 9.02 Q 92.10 46.99 132.64 74.10 Q 92.63 46.22 37.30 9.02 ZM 36.32 8.95 Q 91.52 48.04 126.00 71.51 Q 92.07 47.26 36.32 8.95 ZM 40.03 14.58 Q 82.30 42.84 122.84 68.66 Q 82.90 41.91 40.03 14.58 ZM 39.01 15.27 Q 70.51 36.65 130.01 74.85 Q 71.20 35.59 39.01 15.27 ZM 33.64 11.31 Q 90.15 50.90 126.57 75.25 Q 90.81 49.94 33.64 11.31 ZM 40.85 18.29 Q 90.24 52.11 122.52 73.25 Q 90.78 51.30 40.85 18.29 ZM 37.68 18.20 Q 92.76 54.76 125.18 75.46 Q 93.23 54.04 37.68 18.20 ZM 27.68 12.69 Q 70.96 41.72 126.13 77.34 Q 71.52 40.87 27.68 12.69 ZM 26.65 11.03 Q 90.86 56.59 125.34 79.83 Q 91.61 55.52 26.65 11.03 ZM 32.25 16.71 Q 90.20 57.31 121.27 77.98 Q 90.87 56.34 32.25 16.71 ZM 38.25 23.19 Q 75.79 48.74 120.39 77.41 Q 76.50 47.66 38.25 23.19 ZM 32.93 21.37 Q 79.01 52.31 129.73 84.63 Q 79.77 51.15 32.93 21.37 ZM 35.16 24.03 Q 76.82 52.07 121.68 80.60 Q 77.56 50.95 35.16 24.03 ZM 31.00 22.43 Q 65.47 45.71 118.40 80.14 Q 65.95 44.99 31.00 22.43 ZM 36.95 26.83 Q 83.61 59.43 128.67 89.53 Q 84.27 58.46 36.95 26.83 ZM 35.39 28.10 Q 77.68 56.45 124.57 86.68 Q 78.20 55.65 35.39 28.10 ZM 23.88 20.27 Q 74.08 55.40 114.03 82.27 Q 74.64 54.58 23.88 20.27 ZM 25.45 23.40 Q 69.80 54.00 116.44 84.49 Q 70.56 52.86 25.45 23.40 ZM 23.32 22.50 Q 82.42 63.89 125.48 92.83 Q 83.08 62.93 23.32 22.50 ZM 31.93 30.81 Q 77.43 61.46 115.35 85.91 Q 77.98 60.63 31.93 30.81 ZM 32.09 32.52 Q 75.45 61.55 118.98 89.43 Q 76.03 60.66 32.09 32.52 ZM 24.98 27.72 Q 72.10 60.82 124.58 96.21 Q 72.75 59.87 24.98 27.72 ZM 27.00 31.21 Q 63.12 56.20 115.02 90.10 Q 63.89 55.06 27.00 31.21 ZM 17.34 26.54 Q 61.05 56.20 118.76 93.67 Q 61.72 55.18 17.34 26.54 ZM 28.89 34.86 Q 75.33 66.87 108.71 88.65 Q 76.00 65.88 28.89 34.86 ZM 18.49 30.11 Q 49.52 51.24 108.85 89.60 Q 50.16 50.27 18.49 30.11 ZM 29.31 38.49 Q 84.78 75.45 118.01 96.65 Q 85.32 74.63 29.31 38.49 ZM 15.02 29.59 Q 76.72 71.64 120.25 100.23 Q 77.30 70.77 15.02 29.59 ZM 17.16 33.31 Q 56.21 59.54 121.13 101.47 Q 56.79 58.66 17.16 33.31 ZM 17.36 33.40 Q 53.09 58.33 114.25 99.42 Q 53.63 57.53 17.36 33.40 ZM 27.15 41.47 Q 72.42 72.95 114.39 101.00 Q 72.97 72.15 27.15 41.47 ZM 23.48 39.89 Q 73.01 74.83 118.43 105.59 Q 73.63 73.93 23.48 39.89 ZM 24.45 42.49 Q 72.89 76.28 103.58 96.35 Q 73.65 75.17 24.45 42.49 ZM 12.68 37.32 Q 74.78 78.60 108.53 99.96 Q 75.42 77.63 12.68 37.32 ZM 11.35 36.65 Q 71.90 78.07 107.78 101.68 Q 72.44 77.26 11.35 36.65 ZM 13.55 40.02 Q 57.26 69.61 102.50 98.60 Q 58.01 68.48 13.55 40.02 ZM 10.50 38.91 Q 63.18 74.49 104.98 101.79 Q 63.66 73.77 10.50 38.91 ZM 11.69 41.54 Q 61.34 75.03 112.06 107.53 Q 62.11 73.85 11.69 41.54 ZM 11.99 43.04 Q 59.80 75.28 104.70 104.21 Q 60.44 74.31 11.99 43.04 ZM 6.86 41.08 Q 61.57 77.72 106.28 106.78 Q 62.02 77.04 6.86 41.08 ZM 9.19 42.15 Q 50.70 71.69 110.41 112.22 Q 51.45 70.60 9.19 42.15 ZM 20.33 51.48 Q 56.49 76.77 105.46 109.85 Q 56.95 76.09 20.33 51.48 ZM 14.05 48.81 Q 52.00 75.20 98.05 105.44 Q 52.75 74.09 14.05 48.81 ZM 8.37 46.12 Q 69.77 88.26 109.98 115.00 Q 70.25 87.55 8.37 46.12 ZM 18.03 54.04 Q 52.57 78.01 101.85 110.63 Q 53.18 77.12 18.03 54.04 ZM 18.41 54.67 Q 55.83 81.44 110.04 118.41 Q 56.52 80.45 18.41 54.67 ZM 14.14 54.48 Q 59.35 85.30 101.83 112.86 Q 60.02 84.30 14.14 54.48 ZM 7.53 52.09 Q 46.66 78.53 95.98 109.98 Q 47.42 77.37 7.53 52.09 ZM 2.19 47.96 Q 67.79 94.02 103.45 117.88 Q 68.50 92.99 2.19 47.96 ZM 11.83 56.88 Q 52.52 84.82 102.50 117.52 Q 53.19 83.82 11.83 56.88 ZM 15.24 59.55 Q 63.47 93.61 102.69 120.09 Q 64.10 92.70 15.24 59.55 ZM 3.70 53.64 Q 48.23 84.46 93.34 114.54 Q 48.76 83.68 3.70 53.64 ZM 2.30 53.90 Q 39.22 79.76 94.03 116.22 Q 39.94 78.69 2.30 53.90 ZM 8.74 60.34 Q 47.70 86.68 94.43 116.93 Q 48.26 85.83 8.74 60.34 ZM 11.97 62.21 Q 44.16 85.42 96.45 120.97 Q 44.93 84.31 11.97 62.21 ZM 4.16 59.94 Q 61.48 98.38 94.96 119.84 Q 62.06 97.50 4.16 59.94 ZM 1.30 58.37 Q 67.48 103.66 102.77 127.00 Q 67.97 102.94 1.30 58.37 ZM -3.27 57.63 Q 33.99 82.68 95.68 122.28 Q 34.64 81.68 -3.27 57.63 ZM -4.70 57.58 Q 62.74 102.71 99.26 126.18 Q 63.31 101.84 -4.70 57.58 ZM 3.91 64.56 Q 38.41 87.91 101.84 128.79 Q 39.07 86.90 3.91 64.56 ZM -2.98 60.57 Q 35.60 87.12 99.88 129.72 Q 36.17 86.27 -2.98 60.57 ZM -2.02 61.65 Q 48.39 97.29 90.08 125.47 Q 49.06 96.33 -2.02 61.65 ZM -2.20 63.32 Q 40.83 93.36 95.96 130.13 Q 41.53 92.33 -2.20 63.32 ZM 1.07 67.07 Q 34.44 90.48 90.16 127.69 Q 35.10 89.52 1.07 67.07 ZM -7.42 62.78 Q 35.46 92.55 85.19 125.59 Q 36.10 91.60 -7.42 62.78 ZM 3.89 72.92 Q 40.80 97.83 96.61 133.62 Q 41.48 96.79 3.89 72.92 ZM -8.77 65.96 Q 35.95 95.95 97.69 135.77 Q 36.56 95.03 -8.77 65.96 ZM -5.19 67.72 Q 52.14 108.23 86.59 131.24 Q 52.92 107.10 -5.19 67.72 ZM 2.09 74.41 Q 43.48 103.28 83.33 129.91 Q 44.03 102.47 2.09 74.41 ZM 3.19 76.81 Q 42.25 103.52 92.40 136.59 Q 42.75 102.78 3.19 76.81 ZM -5.83 71.53 Q 42.93 105.27 90.62 136.86 Q 43.59 104.29 -5.83 71.53 ZM 1.48 77.83 Q 45.27 108.29 85.32 134.93 Q 45.86 107.42 1.48 77.83 ZM -10.33 70.69 Q 30.25 99.50 91.08 140.73 Q 30.98 98.44 -10.33 70.69 ZM -9.74 73.75 Q 33.35 103.09 92.64 142.01 Q 33.91 102.25 -9.74 73.75 ZM -12.92 73.67 Q 44.32 112.07 87.98 139.91 Q 45.08 110.91 -12.92 73.67 ZM -1.45 81.90 Q 38.16 108.85 88.96 142.13 Q 38.68 108.07 -1.45 81.90 ZM -1.05 83.12 Q 40.25 111.83 90.60 145.34 Q 40.88 110.91 -1.05 83.12 ZM -8.69 78.59 Q 23.53 101.71 85.53 143.83 Q 24.29 100.60 -8.69 78.59 ZM -10.23 80.49 Q 36.87 112.07 83.51 141.91 Q 37.53 111.05 -10.23 80.49 ZM -8.17 81.17 Q 50.28 122.53 86.28 147.00 Q 50.86 121.69 -8.17 81.17 ZM -10.01 81.88 Q 51.56 124.68 87.31 148.33 Q 52.27 123.63 -10.01 81.88 ZM -4.72 87.27 Q 28.29 110.11 86.65 148.51 Q 28.95 109.12 -4.72 87.27 ZM -14.69 81.79 Q 18.24 104.63 74.57 141.88 Q 18.86 103.70 -14.69 81.79 ZM -8.41 87.32 Q 42.07 122.01 74.14 142.85 Q 42.75 121.00 -8.41 87.32 ZM -15.66 83.29 Q 47.09 127.13 81.53 149.95 Q 47.84 126.04 -15.66 83.29 ZM -15.47 86.22 Q 14.75 106.69 73.40 144.63 Q 15.31 105.84 -15.47 86.22 ZM -7.23 92.40 Q 26.59 115.94 83.43 153.45 Q 27.31 114.88 -7.23 92.40 ZM -19.41 86.08 Q 30.10 119.42 75.03 148.75 Q 30.55 118.74 -19.41 86.08 ZM -21.03 86.65 Q 12.15 109.07 72.55 147.75 Q 12.84 108.01 -21.03 86.65 ZM -23.15 86.10 Q 27.84 120.34 75.22 150.91 Q 28.44 119.43 -23.15 86.10 ZM -16.39 91.18 Q 25.31 119.70 70.43 149.47 Q 25.79 118.98 -16.39 91.18 ZM -17.82 92.23 Q 28.51 123.47 67.90 148.82 Q 29.12 122.56 -17.82 92.23 ZM -18.62 93.54 Q 41.44 133.49 75.04 154.65 Q 42.14 132.41 -18.62 93.54 ZM -20.62 92.33 Q 37.00 132.09 75.96 157.55 Q 37.79 130.92 -20.62 92.33 ZM -14.85 98.07 Q 19.73 121.55 78.17 159.61 Q 20.29 120.71 -14.85 98.07 ZM -21.81 94.75 Q 34.52 132.78 71.70 157.01 Q 35.01 132.05 -21.81 94.75 ZM -26.96 91.33 Q 11.63 118.43 65.61 155.05 Q 12.13 117.70 -26.96 91.33 ZM -20.87 98.22 Q 28.97 131.56 78.68 163.77 Q 29.45 130.83 -20.87 98.22 ZM -21.10 98.21 Q 11.76 121.55 70.86 161.13 Q 12.55 120.39 -21.10 98.21 ZM -29.43 94.97 Q 30.16 135.12 75.75 164.49 Q 30.87 134.05 -29.43 94.97 ZM -16.56 104.65 Q 28.80 135.31 68.73 161.39 Q 29.25 134.63 -16.56 104.65 ZM -17.77 104.21 Q 14.19 126.72 66.85 162.40 Q 14.68 126.01 -17.77 104.21 ZM -21.44 103.79 Q 31.32 139.76 70.30 165.04 Q 32.00 138.73 -21.44 103.79 ZM -28.66 100.58 Q 14.37 129.81 69.66 165.50 Q 15.12 128.67 -28.66 100.58 ZM -20.65 107.24 Q 26.09 138.95 63.71 163.01 Q 26.84 137.82 -20.65 107.24 ZM -26.08 104.87 Q 21.85 137.09 61.08 162.25 Q 22.46 136.17 -26.08 104.87 ZM -24.88 106.58 Q 37.13 148.62 69.63 169.78 Q 37.65 147.84 -24.88 106.58 ZM -19.24 111.37 Q 24.64 141.68 69.37 171.44 Q 25.16 140.91 -19.24 111.37 ZM -29.64 106.20 Q 18.64 139.02 72.12 174.05 Q 19.22 138.15 -29.64 106.20 ZM -28.25 107.58 Q 8.54 133.45 59.71 167.72 Q 9.21 132.48 -28.25 107.58 ZM -23.76 112.43 Q 23.38 144.90 70.66 175.82 Q 24.14 143.76 -23.76 112.43 ZM -32.06 109.21 Q 6.02 134.78 60.62 169.76 Q 6.65 133.81 -32.06 109.21 ZM -30.30 109.46 Q 31.86 153.58 67.57 177.59 Q 32.65 152.44 -30.30 109.46 ZM -36.99 107.55 Q 17.01 144.28 57.88 171.18 Q 17.49 143.57 -36.99 107.55 ZM -26.50 116.68 Q 13.77 143.59 54.11 169.35 Q 14.32 142.76 -26.50 116.68 ZM -36.42 111.07 Q 2.97 137.65 65.02 177.85 Q 3.56 136.75 -36.42 111.07 ZM -27.36 117.20 Q 4.48 139.57 59.90 177.04 Q 4.98 138.84 -27.36 117.20 Z"/><path d="M 112.83 27.88 Q 113.81 69.81 116.04 138.17 Q 114.29 69.80 112.83 27.88 ZM 109.30 39.75 Q 110.84 75.46 114.00 138.58 Q 111.16 75.44 109.30 39.75 ZM 107.72 37.77 Q 108.35 78.77 109.91 146.54 Q 108.75 78.77 107.72 37.77 ZM 102.77 30.52 Q 106.16 104.34 108.68 149.49 Q 106.72 104.31 102.77 30.52 ZM 100.66 40.99 Q 101.93 87.01 104.00 143.35 Q 102.40 86.99 100.66 40.99 ZM 98.09 30.45 Q 98.81 70.20 100.59 142.00 Q 99.15 70.19 98.09 30.45 ZM 94.94 40.08 Q 96.00 93.72 97.71 153.95 Q 96.49 93.70 94.94 40.08 ZM 90.61 37.81 Q 93.17 98.28 95.49 143.91 Q 93.61 98.26 90.61 37.81 ZM 87.49 30.20 Q 89.83 99.88 91.68 145.35 Q 90.23 99.87 87.49 30.20 ZM 83.84 32.37 Q 85.74 80.09 88.55 137.39 Q 86.22 80.07 83.84 32.37 ZM 81.96 40.38 Q 82.91 95.35 84.31 152.42 Q 83.33 95.35 81.96 40.38 ZM 78.35 40.54 Q 79.49 84.96 81.84 153.28 Q 79.96 84.94 78.35 40.54 ZM 75.42 35.59 Q 76.09 76.93 78.02 155.13 Q 76.55 76.92 75.42 35.59 ZM 71.26 32.22 Q 73.84 94.49 76.58 149.44 Q 74.34 94.47 71.26 32.22 ZM 68.85 38.01 Q 70.32 79.69 72.86 140.15 Q 70.65 79.68 68.85 38.01 ZM 66.79 43.83 Q 67.90 93.99 69.28 139.37 Q 68.30 93.98 66.79 43.83 ZM 63.93 43.50 Q 65.65 107.10 66.98 142.18 Q 66.13 107.09 63.93 43.50 ZM 60.45 37.71 Q 62.31 97.14 64.39 153.29 Q 62.63 97.13 60.45 37.71 ZM 56.70 29.50 Q 58.66 76.40 62.55 152.89 Q 59.18 76.37 56.70 29.50 ZM 55.29 34.53 Q 56.26 91.35 57.59 146.43 Q 56.65 91.34 55.29 34.53 ZM 51.54 42.37 Q 52.86 91.72 54.56 139.75 Q 53.28 91.70 51.54 42.37 ZM 47.85 33.84 Q 50.20 100.32 52.34 149.56 Q 50.67 100.30 47.85 33.84 ZM 45.53 43.34 Q 46.69 96.49 48.00 140.69 Q 47.07 96.48 45.53 43.34 ZM 41.95 44.61 Q 43.09 81.00 45.83 147.83 Q 43.55 80.98 41.95 44.61 ZM 39.25 31.87 Q 40.25 84.37 41.99 152.21 Q 40.64 84.36 39.25 31.87 ZM 34.38 33.47 Q 37.97 112.52 40.30 155.68 Q 38.44 112.49 34.38 33.47 ZM 32.28 29.43 Q 34.17 105.79 35.71 151.93 Q 34.66 105.78 32.28 29.43 ZM 28.30 34.10 Q 29.98 76.33 33.62 151.27 Q 30.45 76.31 28.30 34.10 ZM 26.57 37.87 Q 28.15 96.83 30.00 152.59 Q 28.52 96.82 26.57 37.87 ZM 22.49 40.83 Q 24.85 94.07 27.43 142.10 Q 25.31 94.05 22.49 40.83 ZM 20.64 38.79 Q 22.87 110.75 24.65 156.27 Q 23.31 110.73 20.64 38.79 ZM 18.75 44.30 Q 19.83 111.11 20.99 155.35 Q 20.36 111.09 18.75 44.30 ZM 15.06 42.90 Q 16.14 87.25 18.45 154.49 Q 16.67 87.24 15.06 42.90 ZM 10.91 35.50 Q 13.29 87.61 16.40 145.12 Q 13.75 87.58 10.91 35.50 ZM 8.71 45.87 Q 10.14 85.12 12.83 144.97 Q 10.54 85.11 8.71 45.87 ZM 5.84 44.45 Q 8.47 104.80 10.64 147.37 Q 8.83 104.78 5.84 44.45 ZM 2.98 30.24 Q 5.42 100.65 7.42 148.20 Q 5.84 100.63 2.98 30.24 ZM 0.79 43.61 Q 2.19 86.92 4.43 143.96 Q 2.53 86.91 0.79 43.61 ZM -2.35 45.24 Q -0.87 80.50 2.43 145.19 Q -0.46 80.48 -2.35 45.24 ZM -4.00 40.61 Q -3.40 83.30 -1.77 151.81 Q -2.88 83.29 -4.00 40.61 ZM -7.62 43.92 Q -5.77 102.97 -3.75 151.58 Q -5.23 102.95 -7.62 43.92 ZM -10.30 40.00 Q -9.10 93.45 -7.43 144.65 Q -8.57 93.43 -10.30 40.00 ZM -14.45 31.66 Q -12.14 87.93 -9.44 145.69 Q -11.82 87.91 -14.45 31.66 Z"/></g><clipPath id="s2117"><path d="M 50 67 C 42 68, 34 71, 28 76 C 22 80, 17 84, 14 90 C 10 98, 8 108, 7 120 L 93 120 C 92 108, 90 98, 86 90 C 83 84, 78 80, 72 76 C 66 71, 58 68, 50 67 Z"/></clipPath><g clip-path="url(#s2117)"><path fill="#1b1b1a" d="M 8.53 100.81 m -0.23 0 a 0.23 0.23 0 1 0 0.47 0 a 0.23 0.23 0 1 0 -0.47 0 ZM 18.39 76.24 m -0.26 0 a 0.26 0.26 0 1 0 0.53 0 a 0.26 0.26 0 1 0 -0.53 0 ZM 66.40 115.77 m -0.27 0 a 0.27 0.27 0 1 0 0.54 0 a 0.27 0.27 0 1 0 -0.54 0 ZM 66.44 86.93 m -0.28 0 a 0.28 0.28 0 1 0 0.55 0 a 0.28 0.28 0 1 0 -0.55 0 ZM 54.05 64.33 m -0.33 0 a 0.33 0.33 0 1 0 0.66 0 a 0.33 0.33 0 1 0 -0.66 0 ZM 50.35 65.35 m -0.27 0 a 0.27 0.27 0 1 0 0.54 0 a 0.27 0.27 0 1 0 -0.54 0 ZM 53.84 106.72 m -0.14 0 a 0.14 0.14 0 1 0 0.28 0 a 0.14 0.14 0 1 0 -0.28 0 ZM 41.39 97.96 m -0.24 0 a 0.24 0.24 0 1 0 0.48 0 a 0.24 0.24 0 1 0 -0.48 0 ZM 84.21 105.93 m -0.24 0 a 0.24 0.24 0 1 0 0.48 0 a 0.24 0.24 0 1 0 -0.48 0 ZM 47.38 103.41 m -0.18 0 a 0.18 0.18 0 1 0 0.35 0 a 0.18 0.18 0 1 0 -0.35 0 ZM 83.50 71.20 m -0.33 0 a 0.33 0.33 0 1 0 0.66 0 a 0.33 0.33 0 1 0 -0.66 0 ZM 90.99 106.95 m -0.14 0 a 0.14 0.14 0 1 0 0.29 0 a 0.14 0.14 0 1 0 -0.29 0 ZM 30.73 92.47 m -0.25 0 a 0.25 0.25 0 1 0 0.49 0 a 0.25 0.25 0 1 0 -0.49 0 ZM 23.01 85.62 m -0.32 0 a 0.32 0.32 0 1 0 0.63 0 a 0.32 0.32 0 1 0 -0.63 0 ZM 60.55 88.86 m -0.20 0 a 0.20 0.20 0 1 0 0.39 0 a 0.20 0.20 0 1 0 -0.39 0 ZM 14.67 111.65 m -0.32 0 a 0.32 0.32 0 1 0 0.64 0 a 0.32 0.32 0 1 0 -0.64 0 ZM 60.08 83.33 m -0.23 0 a 0.23 0.23 0 1 0 0.45 0 a 0.23 0.23 0 1 0 -0.45 0 ZM 46.62 117.24 m -0.14 0 a 0.14 0.14 0 1 0 0.29 0 a 0.14 0.14 0 1 0 -0.29 0 ZM 44.44 83.01 m -0.33 0 a 0.33 0.33 0 1 0 0.67 0 a 0.33 0.33 0 1 0 -0.67 0 ZM 30.52 118.72 m -0.33 0 a 0.33 0.33 0 1 0 0.65 0 a 0.33 0.33 0 1 0 -0.65 0 ZM 70.81 71.61 m -0.14 0 a 0.14 0.14 0 1 0 0.29 0 a 0.14 0.14 0 1 0 -0.29 0 ZM 11.55 114.95 m -0.28 0 a 0.28 0.28 0 1 0 0.55 0 a 0.28 0.28 0 1 0 -0.55 0 ZM 23.92 72.49 m -0.29 0 a 0.29 0.29 0 1 0 0.59 0 a 0.29 0.29 0 1 0 -0.59 0 ZM 70.33 101.07 m -0.26 0 a 0.26 0.26 0 1 0 0.51 0 a 0.26 0.26 0 1 0 -0.51 0 ZM 22.06 118.05 m -0.20 0 a 0.20 0.20 0 1 0 0.41 0 a 0.20 0.20 0 1 0 -0.41 0 ZM 82.11 91.77 m -0.24 0 a 0.24 0.24 0 1 0 0.48 0 a 0.24 0.24 0 1 0 -0.48 0 ZM 18.96 108.28 m -0.28 0 a 0.28 0.28 0 1 0 0.56 0 a 0.28 0.28 0 1 0 -0.56 0 ZM 26.35 111.99 m -0.34 0 a 0.34 0.34 0 1 0 0.69 0 a 0.34 0.34 0 1 0 -0.69 0 ZM 46.19 67.38 m -0.23 0 a 0.23 0.23 0 1 0 0.45 0 a 0.23 0.23 0 1 0 -0.45 0 ZM 89.05 69.00 m -0.29 0 a 0.29 0.29 0 1 0 0.57 0 a 0.29 0.29 0 1 0 -0.57 0 ZM 48.33 98.41 m -0.18 0 a 0.18 0.18 0 1 0 0.36 0 a 0.18 0.18 0 1 0 -0.36 0 ZM 28.85 103.92 m -0.27 0 a 0.27 0.27 0 1 0 0.54 0 a 0.27 0.27 0 1 0 -0.54 0 ZM 53.20 92.71 m -0.33 0 a 0.33 0.33 0 1 0 0.65 0 a 0.33 0.33 0 1 0 -0.65 0 ZM 79.23 97.73 m -0.34 0 a 0.34 0.34 0 1 0 0.67 0 a 0.34 0.34 0 1 0 -0.67 0 ZM 52.80 84.58 m -0.28 0 a 0.28 0.28 0 1 0 0.56 0 a 0.28 0.28 0 1 0 -0.56 0 ZM 87.64 96.22 m -0.27 0 a 0.27 0.27 0 1 0 0.54 0 a 0.27 0.27 0 1 0 -0.54 0 ZM 84.70 104.67 m -0.24 0 a 0.24 0.24 0 1 0 0.49 0 a 0.24 0.24 0 1 0 -0.49 0 ZM 43.18 93.22 m -0.16 0 a 0.16 0.16 0 1 0 0.31 0 a 0.16 0.16 0 1 0 -0.31 0 ZM 69.74 115.85 m -0.32 0 a 0.32 0.32 0 1 0 0.64 0 a 0.32 0.32 0 1 0 -0.64 0 ZM 69.67 73.92 m -0.28 0 a 0.28 0.28 0 1 0 0.55 0 a 0.28 0.28 0 1 0 -0.55 0 ZM 87.76 77.15 m -0.34 0 a 0.34 0.34 0 1 0 0.67 0 a 0.34 0.34 0 1 0 -0.67 0 ZM 36.37 113.90 m -0.21 0 a 0.21 0.21 0 1 0 0.41 0 a 0.21 0.21 0 1 0 -0.41 0 ZM 84.85 98.29 m -0.16 0 a 0.16 0.16 0 1 0 0.32 0 a 0.16 0.16 0 1 0 -0.32 0 ZM 31.93 111.50 m -0.29 0 a 0.29 0.29 0 1 0 0.59 0 a 0.29 0.29 0 1 0 -0.59 0 ZM 14.69 114.55 m -0.17 0 a 0.17 0.17 0 1 0 0.35 0 a 0.17 0.17 0 1 0 -0.35 0 ZM 29.96 100.02 m -0.30 0 a 0.30 0.30 0 1 0 0.59 0 a 0.30 0.30 0 1 0 -0.59 0 ZM 61.37 116.45 m -0.31 0 a 0.31 0.31 0 1 0 0.62 0 a 0.31 0.31 0 1 0 -0.62 0 ZM 21.03 118.39 m -0.20 0 a 0.20 0.20 0 1 0 0.41 0 a 0.20 0.20 0 1 0 -0.41 0 ZM 11.46 68.12 m -0.18 0 a 0.18 0.18 0 1 0 0.36 0 a 0.18 0.18 0 1 0 -0.36 0 ZM 43.25 98.43 m -0.18 0 a 0.18 0.18 0 1 0 0.35 0 a 0.18 0.18 0 1 0 -0.35 0 ZM 58.49 85.58 m -0.29 0 a 0.29 0.29 0 1 0 0.57 0 a 0.29 0.29 0 1 0 -0.57 0 ZM 44.04 117.94 m -0.31 0 a 0.31 0.31 0 1 0 0.62 0 a 0.31 0.31 0 1 0 -0.62 0 ZM 90.24 79.94 m -0.30 0 a 0.30 0.30 0 1 0 0.59 0 a 0.30 0.30 0 1 0 -0.59 0 ZM 61.26 114.80 m -0.22 0 a 0.22 0.22 0 1 0 0.44 0 a 0.22 0.22 0 1 0 -0.44 0 ZM 24.99 112.23 m -0.18 0 a 0.18 0.18 0 1 0 0.36 0 a 0.18 0.18 0 1 0 -0.36 0 ZM 71.56 89.80 m -0.24 0 a 0.24 0.24 0 1 0 0.48 0 a 0.24 0.24 0 1 0 -0.48 0 ZM 63.29 71.40 m -0.27 0 a 0.27 0.27 0 1 0 0.54 0 a 0.27 0.27 0 1 0 -0.54 0 ZM 38.14 88.06 m -0.33 0 a 0.33 0.33 0 1 0 0.67 0 a 0.33 0.33 0 1 0 -0.67 0 ZM 24.58 112.37 m -0.18 0 a 0.18 0.18 0 1 0 0.37 0 a 0.18 0.18 0 1 0 -0.37 0 ZM 8.39 107.98 m -0.17 0 a 0.17 0.17 0 1 0 0.34 0 a 0.17 0.17 0 1 0 -0.34 0 ZM 79.60 64.98 m -0.19 0 a 0.19 0.19 0 1 0 0.38 0 a 0.19 0.19 0 1 0 -0.38 0 ZM 88.29 98.40 m -0.19 0 a 0.19 0.19 0 1 0 0.38 0 a 0.19 0.19 0 1 0 -0.38 0 ZM 88.81 102.03 m -0.18 0 a 0.18 0.18 0 1 0 0.36 0 a 0.18 0.18 0 1 0 -0.36 0 ZM 91.36 75.52 m -0.15 0 a 0.15 0.15 0 1 0 0.31 0 a 0.15 0.15 0 1 0 -0.31 0 ZM 92.11 86.40 m -0.30 0 a 0.30 0.30 0 1 0 0.59 0 a 0.30 0.30 0 1 0 -0.59 0 ZM 17.25 74.38 m -0.26 0 a 0.26 0.26 0 1 0 0.51 0 a 0.26 0.26 0 1 0 -0.51 0 ZM 54.10 77.12 m -0.25 0 a 0.25 0.25 0 1 0 0.50 0 a 0.25 0.25 0 1 0 -0.50 0 ZM 27.55 74.76 m -0.21 0 a 0.21 0.21 0 1 0 0.43 0 a 0.21 0.21 0 1 0 -0.43 0 ZM 93.78 69.94 m -0.28 0 a 0.28 0.28 0 1 0 0.56 0 a 0.28 0.28 0 1 0 -0.56 0 ZM 44.01 113.86 m -0.32 0 a 0.32 0.32 0 1 0 0.64 0 a 0.32 0.32 0 1 0 -0.64 0 ZM 85.39 107.04 m -0.27 0 a 0.27 0.27 0 1 0 0.54 0 a 0.27 0.27 0 1 0 -0.54 0 ZM 51.43 66.16 m -0.23 0 a 0.23 0.23 0 1 0 0.45 0 a 0.23 0.23 0 1 0 -0.45 0 ZM 9.19 102.41 m -0.24 0 a 0.24 0.24 0 1 0 0.48 0 a 0.24 0.24 0 1 0 -0.48 0 ZM 90.15 103.27 m -0.31 0 a 0.31 0.31 0 1 0 0.62 0 a 0.31 0.31 0 1 0 -0.62 0 ZM 78.01 88.53 m -0.19 0 a 0.19 0.19 0 1 0 0.38 0 a 0.19 0.19 0 1 0 -0.38 0 ZM 42.63 69.39 m -0.18 0 a 0.18 0.18 0 1 0 0.36 0 a 0.18 0.18 0 1 0 -0.36 0 ZM 80.53 104.30 m -0.33 0 a 0.33 0.33 0 1 0 0.66 0 a 0.33 0.33 0 1 0 -0.66 0 ZM 38.85 96.95 m -0.34 0 a 0.34 0.34 0 1 0 0.67 0 a 0.34 0.34 0 1 0 -0.67 0 ZM 58.34 76.08 m -0.31 0 a 0.31 0.31 0 1 0 0.62 0 a 0.31 0.31 0 1 0 -0.62 0 ZM 29.75 80.74 m -0.21 0 a 0.21 0.21 0 1 0 0.42 0 a 0.21 0.21 0 1 0 -0.42 0 ZM 72.42 90.56 m -0.23 0 a 0.23 0.23 0 1 0 0.47 0 a 0.23 0.23 0 1 0 -0.47 0 ZM 33.77 114.94 m -0.23 0 a 0.23 0.23 0 1 0 0.46 0 a 0.23 0.23 0 1 0 -0.46 0 ZM 30.86 79.63 m -0.20 0 a 0.20 0.20 0 1 0 0.41 0 a 0.20 0.20 0 1 0 -0.41 0 ZM 44.54 77.08 m -0.28 0 a 0.28 0.28 0 1 0 0.55 0 a 0.28 0.28 0 1 0 -0.55 0 ZM 27.05 110.07 m -0.28 0 a 0.28 0.28 0 1 0 0.55 0 a 0.28 0.28 0 1 0 -0.55 0 ZM 9.33 95.63 m -0.32 0 a 0.32 0.32 0 1 0 0.64 0 a 0.32 0.32 0 1 0 -0.64 0 ZM 61.23 65.14 m -0.27 0 a 0.27 0.27 0 1 0 0.53 0 a 0.27 0.27 0 1 0 -0.53 0 ZM 51.13 90.35 m -0.22 0 a 0.22 0.22 0 1 0 0.43 0 a 0.22 0.22 0 1 0 -0.43 0 ZM 58.53 67.34 m -0.25 0 a 0.25 0.25 0 1 0 0.51 0 a 0.25 0.25 0 1 0 -0.51 0 ZM 87.79 112.29 m -0.33 0 a 0.33 0.33 0 1 0 0.65 0 a 0.33 0.33 0 1 0 -0.65 0 ZM 13.72 65.74 m -0.21 0 a 0.21 0.21 0 1 0 0.41 0 a 0.21 0.21 0 1 0 -0.41 0 ZM 85.99 107.03 m -0.17 0 a 0.17 0.17 0 1 0 0.33 0 a 0.17 0.17 0 1 0 -0.33 0 ZM 26.31 70.55 m -0.34 0 a 0.34 0.34 0 1 0 0.67 0 a 0.34 0.34 0 1 0 -0.67 0 ZM 78.68 96.94 m -0.29 0 a 0.29 0.29 0 1 0 0.58 0 a 0.29 0.29 0 1 0 -0.58 0 ZM 48.75 84.59 m -0.34 0 a 0.34 0.34 0 1 0 0.68 0 a 0.34 0.34 0 1 0 -0.68 0 ZM 48.46 80.00 m -0.19 0 a 0.19 0.19 0 1 0 0.37 0 a 0.19 0.19 0 1 0 -0.37 0 ZM 66.09 103.82 m -0.24 0 a 0.24 0.24 0 1 0 0.47 0 a 0.24 0.24 0 1 0 -0.47 0 ZM 58.37 86.97 m -0.27 0 a 0.27 0.27 0 1 0 0.54 0 a 0.27 0.27 0 1 0 -0.54 0 ZM 41.96 85.64 m -0.14 0 a 0.14 0.14 0 1 0 0.28 0 a 0.14 0.14 0 1 0 -0.28 0 ZM 43.77 105.57 m -0.30 0 a 0.30 0.30 0 1 0 0.60 0 a 0.30 0.30 0 1 0 -0.60 0 ZM 40.04 117.72 m -0.27 0 a 0.27 0.27 0 1 0 0.54 0 a 0.27 0.27 0 1 0 -0.54 0 ZM 85.20 106.53 m -0.34 0 a 0.34 0.34 0 1 0 0.68 0 a 0.34 0.34 0 1 0 -0.68 0 ZM 13.21 114.44 m -0.32 0 a 0.32 0.32 0 1 0 0.65 0 a 0.32 0.32 0 1 0 -0.65 0 ZM 38.27 74.51 m -0.27 0 a 0.27 0.27 0 1 0 0.55 0 a 0.27 0.27 0 1 0 -0.55 0 ZM 54.13 68.61 m -0.18 0 a 0.18 0.18 0 1 0 0.35 0 a 0.18 0.18 0 1 0 -0.35 0 ZM 72.46 76.78 m -0.16 0 a 0.16 0.16 0 1 0 0.32 0 a 0.16 0.16 0 1 0 -0.32 0 ZM 61.74 118.00 m -0.27 0 a 0.27 0.27 0 1 0 0.55 0 a 0.27 0.27 0 1 0 -0.55 0 ZM 64.60 90.17 m -0.21 0 a 0.21 0.21 0 1 0 0.41 0 a 0.21 0.21 0 1 0 -0.41 0 ZM 87.89 89.23 m -0.32 0 a 0.32 0.32 0 1 0 0.63 0 a 0.32 0.32 0 1 0 -0.63 0 ZM 70.03 93.08 m -0.29 0 a 0.29 0.29 0 1 0 0.58 0 a 0.29 0.29 0 1 0 -0.58 0 ZM 38.34 72.18 m -0.20 0 a 0.20 0.20 0 1 0 0.40 0 a 0.20 0.20 0 1 0 -0.40 0 ZM 86.65 88.27 m -0.15 0 a 0.15 0.15 0 1 0 0.30 0 a 0.15 0.15 0 1 0 -0.30 0 ZM 45.45 97.97 m -0.32 0 a 0.32 0.32 0 1 0 0.64 0 a 0.32 0.32 0 1 0 -0.64 0 ZM 91.09 104.14 m -0.27 0 a 0.27 0.27 0 1 0 0.53 0 a 0.27 0.27 0 1 0 -0.53 0 ZM 11.34 68.17 m -0.18 0 a 0.18 0.18 0 1 0 0.35 0 a 0.18 0.18 0 1 0 -0.35 0 ZM 72.20 96.26 m -0.26 0 a 0.26 0.26 0 1 0 0.53 0 a 0.26 0.26 0 1 0 -0.53 0 ZM 42.33 93.03 m -0.19 0 a 0.19 0.19 0 1 0 0.38 0 a 0.19 0.19 0 1 0 -0.38 0 ZM 63.42 91.16 m -0.16 0 a 0.16 0.16 0 1 0 0.32 0 a 0.16 0.16 0 1 0 -0.32 0 ZM 84.77 96.08 m -0.27 0 a 0.27 0.27 0 1 0 0.53 0 a 0.27 0.27 0 1 0 -0.53 0 ZM 68.37 118.72 m -0.17 0 a 0.17 0.17 0 1 0 0.34 0 a 0.17 0.17 0 1 0 -0.34 0 ZM 64.59 65.32 m -0.26 0 a 0.26 0.26 0 1 0 0.53 0 a 0.26 0.26 0 1 0 -0.53 0 ZM 78.73 83.46 m -0.28 0 a 0.28 0.28 0 1 0 0.57 0 a 0.28 0.28 0 1 0 -0.57 0 ZM 25.26 84.86 m -0.17 0 a 0.17 0.17 0 1 0 0.35 0 a 0.17 0.17 0 1 0 -0.35 0 ZM 36.75 81.73 m -0.30 0 a 0.30 0.30 0 1 0 0.59 0 a 0.30 0.30 0 1 0 -0.59 0 ZM 66.64 111.80 m -0.32 0 a 0.32 0.32 0 1 0 0.64 0 a 0.32 0.32 0 1 0 -0.64 0 ZM 36.32 105.62 m -0.15 0 a 0.15 0.15 0 1 0 0.30 0 a 0.15 0.15 0 1 0 -0.30 0 ZM 50.49 105.86 m -0.22 0 a 0.22 0.22 0 1 0 0.44 0 a 0.22 0.22 0 1 0 -0.44 0 ZM 57.60 92.51 m -0.32 0 a 0.32 0.32 0 1 0 0.65 0 a 0.32 0.32 0 1 0 -0.65 0 ZM 42.97 97.01 m -0.26 0 a 0.26 0.26 0 1 0 0.52 0 a 0.26 0.26 0 1 0 -0.52 0 ZM 12.57 73.15 m -0.23 0 a 0.23 0.23 0 1 0 0.46 0 a 0.23 0.23 0 1 0 -0.46 0 ZM 19.60 91.12 m -0.26 0 a 0.26 0.26 0 1 0 0.52 0 a 0.26 0.26 0 1 0 -0.52 0 ZM 29.93 119.32 m -0.32 0 a 0.32 0.32 0 1 0 0.64 0 a 0.32 0.32 0 1 0 -0.64 0 ZM 25.19 65.32 m -0.21 0 a 0.21 0.21 0 1 0 0.42 0 a 0.21 0.21 0 1 0 -0.42 0 ZM 13.87 88.85 m -0.26 0 a 0.26 0.26 0 1 0 0.52 0 a 0.26 0.26 0 1 0 -0.52 0 ZM 41.41 99.79 m -0.16 0 a 0.16 0.16 0 1 0 0.33 0 a 0.16 0.16 0 1 0 -0.33 0 ZM 77.38 104.30 m -0.29 0 a 0.29 0.29 0 1 0 0.57 0 a 0.29 0.29 0 1 0 -0.57 0 ZM 28.36 103.49 m -0.24 0 a 0.24 0.24 0 1 0 0.47 0 a 0.24 0.24 0 1 0 -0.47 0 ZM 20.04 114.39 m -0.30 0 a 0.30 0.30 0 1 0 0.61 0 a 0.30 0.30 0 1 0 -0.61 0 ZM 44.84 114.26 m -0.22 0 a 0.22 0.22 0 1 0 0.43 0 a 0.22 0.22 0 1 0 -0.43 0 ZM 87.18 76.31 m -0.29 0 a 0.29 0.29 0 1 0 0.59 0 a 0.29 0.29 0 1 0 -0.59 0 ZM 19.62 85.65 m -0.24 0 a 0.24 0.24 0 1 0 0.48 0 a 0.24 0.24 0 1 0 -0.48 0 ZM 7.45 114.35 m -0.33 0 a 0.33 0.33 0 1 0 0.66 0 a 0.33 0.33 0 1 0 -0.66 0 ZM 12.11 72.15 m -0.24 0 a 0.24 0.24 0 1 0 0.49 0 a 0.24 0.24 0 1 0 -0.49 0 ZM 48.21 101.97 m -0.26 0 a 0.26 0.26 0 1 0 0.53 0 a 0.26 0.26 0 1 0 -0.53 0 ZM 61.01 83.36 m -0.28 0 a 0.28 0.28 0 1 0 0.56 0 a 0.28 0.28 0 1 0 -0.56 0 ZM 33.85 93.89 m -0.24 0 a 0.24 0.24 0 1 0 0.48 0 a 0.24 0.24 0 1 0 -0.48 0 ZM 42.82 92.29 m -0.28 0 a 0.28 0.28 0 1 0 0.57 0 a 0.28 0.28 0 1 0 -0.57 0 ZM 67.85 72.94 m -0.15 0 a 0.15 0.15 0 1 0 0.29 0 a 0.15 0.15 0 1 0 -0.29 0 ZM 64.06 91.06 m -0.22 0 a 0.22 0.22 0 1 0 0.44 0 a 0.22 0.22 0 1 0 -0.44 0 ZM 69.40 116.49 m -0.17 0 a 0.17 0.17 0 1 0 0.34 0 a 0.17 0.17 0 1 0 -0.34 0 ZM 55.26 90.25 m -0.23 0 a 0.23 0.23 0 1 0 0.45 0 a 0.23 0.23 0 1 0 -0.45 0 ZM 54.79 102.50 m -0.19 0 a 0.19 0.19 0 1 0 0.38 0 a 0.19 0.19 0 1 0 -0.38 0 ZM 36.58 104.88 m -0.17 0 a 0.17 0.17 0 1 0 0.35 0 a 0.17 0.17 0 1 0 -0.35 0 ZM 41.70 107.05 m -0.15 0 a 0.15 0.15 0 1 0 0.29 0 a 0.15 0.15 0 1 0 -0.29 0 ZM 35.55 99.11 m -0.23 0 a 0.23 0.23 0 1 0 0.45 0 a 0.23 0.23 0 1 0 -0.45 0 ZM 11.83 78.52 m -0.25 0 a 0.25 0.25 0 1 0 0.50 0 a 0.25 0.25 0 1 0 -0.50 0 ZM 7.21 115.69 m -0.29 0 a 0.29 0.29 0 1 0 0.58 0 a 0.29 0.29 0 1 0 -0.58 0 ZM 46.39 72.91 m -0.33 0 a 0.33 0.33 0 1 0 0.67 0 a 0.33 0.33 0 1 0 -0.67 0 ZM 28.61 64.31 m -0.15 0 a 0.15 0.15 0 1 0 0.30 0 a 0.15 0.15 0 1 0 -0.30 0 ZM 61.47 73.21 m -0.19 0 a 0.19 0.19 0 1 0 0.39 0 a 0.19 0.19 0 1 0 -0.39 0 ZM 89.93 118.71 m -0.14 0 a 0.14 0.14 0 1 0 0.29 0 a 0.14 0.14 0 1 0 -0.29 0 ZM 70.75 81.51 m -0.19 0 a 0.19 0.19 0 1 0 0.39 0 a 0.19 0.19 0 1 0 -0.39 0 ZM 63.74 82.61 m -0.28 0 a 0.28 0.28 0 1 0 0.56 0 a 0.28 0.28 0 1 0 -0.56 0 ZM 6.59 92.49 m -0.24 0 a 0.24 0.24 0 1 0 0.48 0 a 0.24 0.24 0 1 0 -0.48 0 ZM 60.74 75.24 m -0.28 0 a 0.28 0.28 0 1 0 0.55 0 a 0.28 0.28 0 1 0 -0.55 0 ZM 57.51 69.45 m -0.33 0 a 0.33 0.33 0 1 0 0.67 0 a 0.33 0.33 0 1 0 -0.67 0 ZM 21.31 116.50 m -0.17 0 a 0.17 0.17 0 1 0 0.33 0 a 0.17 0.17 0 1 0 -0.33 0 ZM 35.10 89.48 m -0.33 0 a 0.33 0.33 0 1 0 0.66 0 a 0.33 0.33 0 1 0 -0.66 0 ZM 70.36 118.19 m -0.25 0 a 0.25 0.25 0 1 0 0.50 0 a 0.25 0.25 0 1 0 -0.50 0 ZM 19.37 79.25 m -0.21 0 a 0.21 0.21 0 1 0 0.41 0 a 0.21 0.21 0 1 0 -0.41 0 ZM 11.25 83.83 m -0.27 0 a 0.27 0.27 0 1 0 0.53 0 a 0.27 0.27 0 1 0 -0.53 0 ZM 24.68 115.33 m -0.25 0 a 0.25 0.25 0 1 0 0.49 0 a 0.25 0.25 0 1 0 -0.49 0 ZM 6.19 86.00 m -0.27 0 a 0.27 0.27 0 1 0 0.54 0 a 0.27 0.27 0 1 0 -0.54 0 ZM 50.50 98.56 m -0.30 0 a 0.30 0.30 0 1 0 0.60 0 a 0.30 0.30 0 1 0 -0.60 0 ZM 27.21 90.29 m -0.23 0 a 0.23 0.23 0 1 0 0.46 0 a 0.23 0.23 0 1 0 -0.46 0 ZM 84.63 91.96 m -0.31 0 a 0.31 0.31 0 1 0 0.63 0 a 0.31 0.31 0 1 0 -0.63 0 ZM 81.11 100.46 m -0.20 0 a 0.20 0.20 0 1 0 0.41 0 a 0.20 0.20 0 1 0 -0.41 0 ZM 26.00 82.67 m -0.21 0 a 0.21 0.21 0 1 0 0.42 0 a 0.21 0.21 0 1 0 -0.42 0 ZM 57.83 100.74 m -0.18 0 a 0.18 0.18 0 1 0 0.36 0 a 0.18 0.18 0 1 0 -0.36 0 ZM 36.01 101.04 m -0.33 0 a 0.33 0.33 0 1 0 0.65 0 a 0.33 0.33 0 1 0 -0.65 0 ZM 45.20 77.62 m -0.27 0 a 0.27 0.27 0 1 0 0.54 0 a 0.27 0.27 0 1 0 -0.54 0 ZM 21.74 103.12 m -0.14 0 a 0.14 0.14 0 1 0 0.29 0 a 0.14 0.14 0 1 0 -0.29 0 ZM 19.07 91.09 m -0.31 0 a 0.31 0.31 0 1 0 0.62 0 a 0.31 0.31 0 1 0 -0.62 0 ZM 73.13 94.64 m -0.30 0 a 0.30 0.30 0 1 0 0.61 0 a 0.30 0.30 0 1 0 -0.61 0 ZM 50.29 77.70 m -0.26 0 a 0.26 0.26 0 1 0 0.52 0 a 0.26 0.26 0 1 0 -0.52 0 ZM 42.40 102.32 m -0.33 0 a 0.33 0.33 0 1 0 0.67 0 a 0.33 0.33 0 1 0 -0.67 0 ZM 48.07 73.57 m -0.14 0 a 0.14 0.14 0 1 0 0.28 0 a 0.14 0.14 0 1 0 -0.28 0 ZM 57.43 85.32 m -0.25 0 a 0.25 0.25 0 1 0 0.49 0 a 0.25 0.25 0 1 0 -0.49 0 ZM 71.38 66.02 m -0.27 0 a 0.27 0.27 0 1 0 0.54 0 a 0.27 0.27 0 1 0 -0.54 0 ZM 45.94 119.17 m -0.28 0 a 0.28 0.28 0 1 0 0.55 0 a 0.28 0.28 0 1 0 -0.55 0 ZM 70.82 85.96 m -0.30 0 a 0.30 0.30 0 1 0 0.60 0 a 0.30 0.30 0 1 0 -0.60 0 ZM 48.35 111.97 m -0.27 0 a 0.27 0.27 0 1 0 0.53 0 a 0.27 0.27 0 1 0 -0.53 0 ZM 51.27 112.64 m -0.22 0 a 0.22 0.22 0 1 0 0.44 0 a 0.22 0.22 0 1 0 -0.44 0 ZM 51.71 118.48 m -0.33 0 a 0.33 0.33 0 1 0 0.66 0 a 0.33 0.33 0 1 0 -0.66 0 ZM 23.27 98.00 m -0.29 0 a 0.29 0.29 0 1 0 0.58 0 a 0.29 0.29 0 1 0 -0.58 0 ZM 35.36 73.62 m -0.21 0 a 0.21 0.21 0 1 0 0.41 0 a 0.21 0.21 0 1 0 -0.41 0 ZM 53.05 96.44 m -0.28 0 a 0.28 0.28 0 1 0 0.55 0 a 0.28 0.28 0 1 0 -0.55 0 ZM 88.23 88.63 m -0.32 0 a 0.32 0.32 0 1 0 0.63 0 a 0.32 0.32 0 1 0 -0.63 0 ZM 8.19 75.36 m -0.14 0 a 0.14 0.14 0 1 0 0.28 0 a 0.14 0.14 0 1 0 -0.28 0 ZM 12.36 84.18 m -0.14 0 a 0.14 0.14 0 1 0 0.27 0 a 0.14 0.14 0 1 0 -0.27 0 ZM 91.64 113.66 m -0.27 0 a 0.27 0.27 0 1 0 0.54 0 a 0.27 0.27 0 1 0 -0.54 0 ZM 46.26 106.82 m -0.23 0 a 0.23 0.23 0 1 0 0.46 0 a 0.23 0.23 0 1 0 -0.46 0 ZM 79.35 91.26 m -0.15 0 a 0.15 0.15 0 1 0 0.29 0 a 0.15 0.15 0 1 0 -0.29 0 ZM 63.90 107.46 m -0.18 0 a 0.18 0.18 0 1 0 0.36 0 a 0.18 0.18 0 1 0 -0.36 0 ZM 10.55 75.46 m -0.27 0 a 0.27 0.27 0 1 0 0.54 0 a 0.27 0.27 0 1 0 -0.54 0 ZM 62.10 81.36 m -0.20 0 a 0.20 0.20 0 1 0 0.39 0 a 0.20 0.20 0 1 0 -0.39 0 ZM 91.73 95.41 m -0.31 0 a 0.31 0.31 0 1 0 0.62 0 a 0.31 0.31 0 1 0 -0.62 0 ZM 53.50 105.08 m -0.27 0 a 0.27 0.27 0 1 0 0.54 0 a 0.27 0.27 0 1 0 -0.54 0 ZM 56.40 75.57 m -0.29 0 a 0.29 0.29 0 1 0 0.58 0 a 0.29 0.29 0 1 0 -0.58 0 ZM 26.49 106.78 m -0.32 0 a 0.32 0.32 0 1 0 0.63 0 a 0.32 0.32 0 1 0 -0.63 0 ZM 55.22 74.91 m -0.28 0 a 0.28 0.28 0 1 0 0.57 0 a 0.28 0.28 0 1 0 -0.57 0 ZM 67.77 95.16 m -0.29 0 a 0.29 0.29 0 1 0 0.58 0 a 0.29 0.29 0 1 0 -0.58 0 ZM 33.33 114.23 m -0.26 0 a 0.26 0.26 0 1 0 0.53 0 a 0.26 0.26 0 1 0 -0.53 0 ZM 78.37 67.10 m -0.14 0 a 0.14 0.14 0 1 0 0.28 0 a 0.14 0.14 0 1 0 -0.28 0 ZM 81.53 69.51 m -0.29 0 a 0.29 0.29 0 1 0 0.57 0 a 0.29 0.29 0 1 0 -0.57 0 ZM 47.39 83.08 m -0.29 0 a 0.29 0.29 0 1 0 0.58 0 a 0.29 0.29 0 1 0 -0.58 0 ZM 76.19 65.81 m -0.21 0 a 0.21 0.21 0 1 0 0.43 0 a 0.21 0.21 0 1 0 -0.43 0 ZM 10.65 72.09 m -0.26 0 a 0.26 0.26 0 1 0 0.51 0 a 0.26 0.26 0 1 0 -0.51 0 ZM 38.40 119.14 m -0.34 0 a 0.34 0.34 0 1 0 0.67 0 a 0.34 0.34 0 1 0 -0.67 0 ZM 63.60 72.26 m -0.18 0 a 0.18 0.18 0 1 0 0.36 0 a 0.18 0.18 0 1 0 -0.36 0 ZM 58.48 66.19 m -0.22 0 a 0.22 0.22 0 1 0 0.44 0 a 0.22 0.22 0 1 0 -0.44 0 ZM 41.81 90.24 m -0.26 0 a 0.26 0.26 0 1 0 0.52 0 a 0.26 0.26 0 1 0 -0.52 0 ZM 54.92 89.08 m -0.34 0 a 0.34 0.34 0 1 0 0.68 0 a 0.34 0.34 0 1 0 -0.68 0 ZM 55.52 92.91 m -0.15 0 a 0.15 0.15 0 1 0 0.29 0 a 0.15 0.15 0 1 0 -0.29 0 ZM 76.94 118.59 m -0.34 0 a 0.34 0.34 0 1 0 0.67 0 a 0.34 0.34 0 1 0 -0.67 0 ZM 31.62 93.12 m -0.20 0 a 0.20 0.20 0 1 0 0.39 0 a 0.20 0.20 0 1 0 -0.39 0 ZM 62.65 117.73 m -0.22 0 a 0.22 0.22 0 1 0 0.43 0 a 0.22 0.22 0 1 0 -0.43 0 ZM 38.67 75.38 m -0.14 0 a 0.14 0.14 0 1 0 0.28 0 a 0.14 0.14 0 1 0 -0.28 0 ZM 22.01 119.59 m -0.21 0 a 0.21 0.21 0 1 0 0.42 0 a 0.21 0.21 0 1 0 -0.42 0 ZM 66.41 105.02 m -0.28 0 a 0.28 0.28 0 1 0 0.56 0 a 0.28 0.28 0 1 0 -0.56 0 ZM 43.25 68.17 m -0.33 0 a 0.33 0.33 0 1 0 0.65 0 a 0.33 0.33 0 1 0 -0.65 0 ZM 61.14 115.17 m -0.25 0 a 0.25 0.25 0 1 0 0.50 0 a 0.25 0.25 0 1 0 -0.50 0 ZM 13.19 96.90 m -0.14 0 a 0.14 0.14 0 1 0 0.28 0 a 0.14 0.14 0 1 0 -0.28 0 ZM 21.47 99.27 m -0.28 0 a 0.28 0.28 0 1 0 0.56 0 a 0.28 0.28 0 1 0 -0.56 0 ZM 71.32 101.12 m -0.28 0 a 0.28 0.28 0 1 0 0.56 0 a 0.28 0.28 0 1 0 -0.56 0 ZM 54.69 70.01 m -0.29 0 a 0.29 0.29 0 1 0 0.57 0 a 0.29 0.29 0 1 0 -0.57 0 ZM 15.52 103.90 m -0.17 0 a 0.17 0.17 0 1 0 0.34 0 a 0.17 0.17 0 1 0 -0.34 0 ZM 77.03 73.92 m -0.19 0 a 0.19 0.19 0 1 0 0.38 0 a 0.19 0.19 0 1 0 -0.38 0 ZM 35.83 79.89 m -0.21 0 a 0.21 0.21 0 1 0 0.42 0 a 0.21 0.21 0 1 0 -0.42 0 ZM 52.72 90.92 m -0.17 0 a 0.17 0.17 0 1 0 0.34 0 a 0.17 0.17 0 1 0 -0.34 0 ZM 55.20 109.21 m -0.32 0 a 0.32 0.32 0 1 0 0.64 0 a 0.32 0.32 0 1 0 -0.64 0 ZM 17.18 75.77 m -0.24 0 a 0.24 0.24 0 1 0 0.48 0 a 0.24 0.24 0 1 0 -0.48 0 ZM 32.78 118.27 m -0.21 0 a 0.21 0.21 0 1 0 0.42 0 a 0.21 0.21 0 1 0 -0.42 0 ZM 66.95 74.12 m -0.31 0 a 0.31 0.31 0 1 0 0.62 0 a 0.31 0.31 0 1 0 -0.62 0 ZM 32.46 101.20 m -0.27 0 a 0.27 0.27 0 1 0 0.54 0 a 0.27 0.27 0 1 0 -0.54 0 ZM 49.44 92.33 m -0.14 0 a 0.14 0.14 0 1 0 0.27 0 a 0.14 0.14 0 1 0 -0.27 0 ZM 59.90 87.42 m -0.28 0 a 0.28 0.28 0 1 0 0.56 0 a 0.28 0.28 0 1 0 -0.56 0 ZM 23.70 96.78 m -0.16 0 a 0.16 0.16 0 1 0 0.32 0 a 0.16 0.16 0 1 0 -0.32 0 ZM 78.57 103.18 m -0.32 0 a 0.32 0.32 0 1 0 0.64 0 a 0.32 0.32 0 1 0 -0.64 0 ZM 43.62 88.03 m -0.15 0 a 0.15 0.15 0 1 0 0.30 0 a 0.15 0.15 0 1 0 -0.30 0 ZM 30.09 85.46 m -0.17 0 a 0.17 0.17 0 1 0 0.35 0 a 0.17 0.17 0 1 0 -0.35 0 ZM 93.67 99.64 m -0.25 0 a 0.25 0.25 0 1 0 0.49 0 a 0.25 0.25 0 1 0 -0.49 0 ZM 16.15 71.54 m -0.22 0 a 0.22 0.22 0 1 0 0.44 0 a 0.22 0.22 0 1 0 -0.44 0 ZM 63.13 78.61 m -0.21 0 a 0.21 0.21 0 1 0 0.41 0 a 0.21 0.21 0 1 0 -0.41 0 ZM 56.69 102.31 m -0.27 0 a 0.27 0.27 0 1 0 0.55 0 a 0.27 0.27 0 1 0 -0.55 0 ZM 32.31 84.71 m -0.33 0 a 0.33 0.33 0 1 0 0.66 0 a 0.33 0.33 0 1 0 -0.66 0 ZM 51.48 97.97 m -0.16 0 a 0.16 0.16 0 1 0 0.32 0 a 0.16 0.16 0 1 0 -0.32 0 ZM 70.15 69.67 m -0.34 0 a 0.34 0.34 0 1 0 0.68 0 a 0.34 0.34 0 1 0 -0.68 0 ZM 41.84 77.15 m -0.22 0 a 0.22 0.22 0 1 0 0.44 0 a 0.22 0.22 0 1 0 -0.44 0 ZM 18.93 77.42 m -0.19 0 a 0.19 0.19 0 1 0 0.37 0 a 0.19 0.19 0 1 0 -0.37 0 ZM 24.80 92.54 m -0.31 0 a 0.31 0.31 0 1 0 0.62 0 a 0.31 0.31 0 1 0 -0.62 0 ZM 53.20 112.75 m -0.17 0 a 0.17 0.17 0 1 0 0.34 0 a 0.17 0.17 0 1 0 -0.34 0 ZM 11.42 98.07 m -0.18 0 a 0.18 0.18 0 1 0 0.37 0 a 0.18 0.18 0 1 0 -0.37 0 ZM 10.64 83.10 m -0.31 0 a 0.31 0.31 0 1 0 0.62 0 a 0.31 0.31 0 1 0 -0.62 0 ZM 30.64 96.23 m -0.19 0 a 0.19 0.19 0 1 0 0.38 0 a 0.19 0.19 0 1 0 -0.38 0 ZM 54.25 77.85 m -0.20 0 a 0.20 0.20 0 1 0 0.40 0 a 0.20 0.20 0 1 0 -0.40 0 ZM 36.99 93.57 m -0.22 0 a 0.22 0.22 0 1 0 0.43 0 a 0.22 0.22 0 1 0 -0.43 0 ZM 76.32 77.92 m -0.24 0 a 0.24 0.24 0 1 0 0.49 0 a 0.24 0.24 0 1 0 -0.49 0 ZM 61.83 107.69 m -0.26 0 a 0.26 0.26 0 1 0 0.52 0 a 0.26 0.26 0 1 0 -0.52 0 ZM 8.12 104.72 m -0.29 0 a 0.29 0.29 0 1 0 0.59 0 a 0.29 0.29 0 1 0 -0.59 0 ZM 25.57 92.22 m -0.16 0 a 0.16 0.16 0 1 0 0.31 0 a 0.16 0.16 0 1 0 -0.31 0 ZM 44.48 103.07 m -0.19 0 a 0.19 0.19 0 1 0 0.39 0 a 0.19 0.19 0 1 0 -0.39 0 ZM 8.22 78.29 m -0.26 0 a 0.26 0.26 0 1 0 0.52 0 a 0.26 0.26 0 1 0 -0.52 0 ZM 48.49 72.25 m -0.30 0 a 0.30 0.30 0 1 0 0.60 0 a 0.30 0.30 0 1 0 -0.60 0 ZM 76.31 113.44 m -0.24 0 a 0.24 0.24 0 1 0 0.48 0 a 0.24 0.24 0 1 0 -0.48 0 ZM 93.88 107.01 m -0.19 0 a 0.19 0.19 0 1 0 0.37 0 a 0.19 0.19 0 1 0 -0.37 0 ZM 19.25 90.35 m -0.21 0 a 0.21 0.21 0 1 0 0.43 0 a 0.21 0.21 0 1 0 -0.43 0 ZM 46.27 108.09 m -0.21 0 a 0.21 0.21 0 1 0 0.42 0 a 0.21 0.21 0 1 0 -0.42 0 ZM 8.07 98.04 m -0.26 0 a 0.26 0.26 0 1 0 0.52 0 a 0.26 0.26 0 1 0 -0.52 0 ZM 80.15 94.02 m -0.26 0 a 0.26 0.26 0 1 0 0.53 0 a 0.26 0.26 0 1 0 -0.53 0 ZM 28.90 69.38 m -0.20 0 a 0.20 0.20 0 1 0 0.40 0 a 0.20 0.20 0 1 0 -0.40 0 ZM 61.74 105.82 m -0.26 0 a 0.26 0.26 0 1 0 0.52 0 a 0.26 0.26 0 1 0 -0.52 0 ZM 60.10 76.94 m -0.29 0 a 0.29 0.29 0 1 0 0.57 0 a 0.29 0.29 0 1 0 -0.57 0 ZM 7.99 101.48 m -0.25 0 a 0.25 0.25 0 1 0 0.49 0 a 0.25 0.25 0 1 0 -0.49 0 ZM 80.58 83.66 m -0.15 0 a 0.15 0.15 0 1 0 0.30 0 a 0.15 0.15 0 1 0 -0.30 0 ZM 55.30 108.94 m -0.19 0 a 0.19 0.19 0 1 0 0.38 0 a 0.19 0.19 0 1 0 -0.38 0 ZM 43.14 88.10 m -0.29 0 a 0.29 0.29 0 1 0 0.58 0 a 0.29 0.29 0 1 0 -0.58 0 ZM 91.60 101.76 m -0.30 0 a 0.30 0.30 0 1 0 0.60 0 a 0.30 0.30 0 1 0 -0.60 0 ZM 8.94 98.64 m -0.31 0 a 0.31 0.31 0 1 0 0.62 0 a 0.31 0.31 0 1 0 -0.62 0 ZM 29.23 93.43 m -0.14 0 a 0.14 0.14 0 1 0 0.29 0 a 0.14 0.14 0 1 0 -0.29 0 ZM 56.08 119.79 m -0.19 0 a 0.19 0.19 0 1 0 0.37 0 a 0.19 0.19 0 1 0 -0.37 0 ZM 28.77 71.53 m -0.17 0 a 0.17 0.17 0 1 0 0.34 0 a 0.17 0.17 0 1 0 -0.34 0 ZM 86.86 90.36 m -0.24 0 a 0.24 0.24 0 1 0 0.47 0 a 0.24 0.24 0 1 0 -0.47 0 ZM 40.80 85.09 m -0.32 0 a 0.32 0.32 0 1 0 0.65 0 a 0.32 0.32 0 1 0 -0.65 0 ZM 85.28 110.25 m -0.17 0 a 0.17 0.17 0 1 0 0.34 0 a 0.17 0.17 0 1 0 -0.34 0 ZM 18.17 114.67 m -0.27 0 a 0.27 0.27 0 1 0 0.53 0 a 0.27 0.27 0 1 0 -0.53 0 ZM 7.54 91.84 m -0.25 0 a 0.25 0.25 0 1 0 0.51 0 a 0.25 0.25 0 1 0 -0.51 0 ZM 40.40 70.04 m -0.32 0 a 0.32 0.32 0 1 0 0.65 0 a 0.32 0.32 0 1 0 -0.65 0 ZM 71.39 101.73 m -0.24 0 a 0.24 0.24 0 1 0 0.47 0 a 0.24 0.24 0 1 0 -0.47 0 ZM 85.79 104.09 m -0.25 0 a 0.25 0.25 0 1 0 0.49 0 a 0.25 0.25 0 1 0 -0.49 0 ZM 58.62 86.21 m -0.22 0 a 0.22 0.22 0 1 0 0.45 0 a 0.22 0.22 0 1 0 -0.45 0 ZM 69.29 82.85 m -0.27 0 a 0.27 0.27 0 1 0 0.53 0 a 0.27 0.27 0 1 0 -0.53 0 ZM 20.76 75.55 m -0.16 0 a 0.16 0.16 0 1 0 0.33 0 a 0.16 0.16 0 1 0 -0.33 0 ZM 91.52 68.29 m -0.17 0 a 0.17 0.17 0 1 0 0.35 0 a 0.17 0.17 0 1 0 -0.35 0 ZM 42.00 99.69 m -0.26 0 a 0.26 0.26 0 1 0 0.51 0 a 0.26 0.26 0 1 0 -0.51 0 ZM 79.99 105.45 m -0.24 0 a 0.24 0.24 0 1 0 0.48 0 a 0.24 0.24 0 1 0 -0.48 0 ZM 72.21 85.37 m -0.17 0 a 0.17 0.17 0 1 0 0.34 0 a 0.17 0.17 0 1 0 -0.34 0 ZM 31.93 90.54 m -0.34 0 a 0.34 0.34 0 1 0 0.68 0 a 0.34 0.34 0 1 0 -0.68 0 ZM 73.88 87.74 m -0.26 0 a 0.26 0.26 0 1 0 0.52 0 a 0.26 0.26 0 1 0 -0.52 0 ZM 10.92 93.67 m -0.27 0 a 0.27 0.27 0 1 0 0.54 0 a 0.27 0.27 0 1 0 -0.54 0 ZM 87.78 102.36 m -0.33 0 a 0.33 0.33 0 1 0 0.67 0 a 0.33 0.33 0 1 0 -0.67 0 ZM 75.15 96.52 m -0.28 0 a 0.28 0.28 0 1 0 0.57 0 a 0.28 0.28 0 1 0 -0.57 0 ZM 11.73 111.79 m -0.24 0 a 0.24 0.24 0 1 0 0.48 0 a 0.24 0.24 0 1 0 -0.48 0 ZM 41.90 113.91 m -0.32 0 a 0.32 0.32 0 1 0 0.63 0 a 0.32 0.32 0 1 0 -0.63 0 ZM 57.89 64.92 m -0.14 0 a 0.14 0.14 0 1 0 0.29 0 a 0.14 0.14 0 1 0 -0.29 0 ZM 78.40 80.35 m -0.30 0 a 0.30 0.30 0 1 0 0.60 0 a 0.30 0.30 0 1 0 -0.60 0 ZM 85.14 113.41 m -0.29 0 a 0.29 0.29 0 1 0 0.57 0 a 0.29 0.29 0 1 0 -0.57 0 ZM 67.27 67.40 m -0.15 0 a 0.15 0.15 0 1 0 0.30 0 a 0.15 0.15 0 1 0 -0.30 0 ZM 80.43 108.29 m -0.25 0 a 0.25 0.25 0 1 0 0.50 0 a 0.25 0.25 0 1 0 -0.50 0 ZM 29.26 117.45 m -0.32 0 a 0.32 0.32 0 1 0 0.64 0 a 0.32 0.32 0 1 0 -0.64 0 ZM 92.58 116.40 m -0.21 0 a 0.21 0.21 0 1 0 0.42 0 a 0.21 0.21 0 1 0 -0.42 0 ZM 27.10 92.08 m -0.33 0 a 0.33 0.33 0 1 0 0.67 0 a 0.33 0.33 0 1 0 -0.67 0 ZM 67.61 78.28 m -0.25 0 a 0.25 0.25 0 1 0 0.50 0 a 0.25 0.25 0 1 0 -0.50 0 ZM 63.43 82.17 m -0.34 0 a 0.34 0.34 0 1 0 0.68 0 a 0.34 0.34 0 1 0 -0.68 0 ZM 80.21 103.70 m -0.16 0 a 0.16 0.16 0 1 0 0.33 0 a 0.16 0.16 0 1 0 -0.33 0 ZM 93.70 68.89 m -0.27 0 a 0.27 0.27 0 1 0 0.53 0 a 0.27 0.27 0 1 0 -0.53 0 ZM 12.40 78.35 m -0.22 0 a 0.22 0.22 0 1 0 0.43 0 a 0.22 0.22 0 1 0 -0.43 0 ZM 86.09 74.86 m -0.14 0 a 0.14 0.14 0 1 0 0.29 0 a 0.14 0.14 0 1 0 -0.29 0 ZM 16.18 72.02 m -0.30 0 a 0.30 0.30 0 1 0 0.60 0 a 0.30 0.30 0 1 0 -0.60 0 ZM 49.77 102.18 m -0.21 0 a 0.21 0.21 0 1 0 0.41 0 a 0.21 0.21 0 1 0 -0.41 0 ZM 12.09 77.75 m -0.15 0 a 0.15 0.15 0 1 0 0.29 0 a 0.15 0.15 0 1 0 -0.29 0 ZM 50.37 68.11 m -0.21 0 a 0.21 0.21 0 1 0 0.41 0 a 0.21 0.21 0 1 0 -0.41 0 ZM 8.47 91.70 m -0.18 0 a 0.18 0.18 0 1 0 0.37 0 a 0.18 0.18 0 1 0 -0.37 0 ZM 79.04 106.08 m -0.33 0 a 0.33 0.33 0 1 0 0.66 0 a 0.33 0.33 0 1 0 -0.66 0 ZM 22.54 109.86 m -0.16 0 a 0.16 0.16 0 1 0 0.31 0 a 0.16 0.16 0 1 0 -0.31 0 ZM 56.94 64.61 m -0.22 0 a 0.22 0.22 0 1 0 0.44 0 a 0.22 0.22 0 1 0 -0.44 0 ZM 53.00 72.88 m -0.14 0 a 0.14 0.14 0 1 0 0.28 0 a 0.14 0.14 0 1 0 -0.28 0 ZM 85.78 120.00 m -0.30 0 a 0.30 0.30 0 1 0 0.61 0 a 0.30 0.30 0 1 0 -0.61 0 ZM 14.27 99.19 m -0.22 0 a 0.22 0.22 0 1 0 0.43 0 a 0.22 0.22 0 1 0 -0.43 0 ZM 40.47 108.73 m -0.20 0 a 0.20 0.20 0 1 0 0.40 0 a 0.20 0.20 0 1 0 -0.40 0 ZM 90.78 73.74 m -0.29 0 a 0.29 0.29 0 1 0 0.59 0 a 0.29 0.29 0 1 0 -0.59 0 ZM 40.84 85.50 m -0.29 0 a 0.29 0.29 0 1 0 0.58 0 a 0.29 0.29 0 1 0 -0.58 0 ZM 33.25 106.86 m -0.26 0 a 0.26 0.26 0 1 0 0.53 0 a 0.26 0.26 0 1 0 -0.53 0 ZM 38.09 64.74 m -0.17 0 a 0.17 0.17 0 1 0 0.35 0 a 0.17 0.17 0 1 0 -0.35 0 ZM 89.47 85.03 m -0.21 0 a 0.21 0.21 0 1 0 0.42 0 a 0.21 0.21 0 1 0 -0.42 0 ZM 47.15 90.47 m -0.15 0 a 0.15 0.15 0 1 0 0.30 0 a 0.15 0.15 0 1 0 -0.30 0 ZM 19.08 70.13 m -0.27 0 a 0.27 0.27 0 1 0 0.55 0 a 0.27 0.27 0 1 0 -0.55 0 ZM 60.56 81.69 m -0.27 0 a 0.27 0.27 0 1 0 0.53 0 a 0.27 0.27 0 1 0 -0.53 0 ZM 23.82 91.18 m -0.22 0 a 0.22 0.22 0 1 0 0.44 0 a 0.22 0.22 0 1 0 -0.44 0 ZM 44.32 100.94 m -0.29 0 a 0.29 0.29 0 1 0 0.59 0 a 0.29 0.29 0 1 0 -0.59 0 ZM 43.41 71.49 m -0.20 0 a 0.20 0.20 0 1 0 0.40 0 a 0.20 0.20 0 1 0 -0.40 0 ZM 87.61 91.53 m -0.32 0 a 0.32 0.32 0 1 0 0.64 0 a 0.32 0.32 0 1 0 -0.64 0 ZM 89.61 118.52 m -0.23 0 a 0.23 0.23 0 1 0 0.46 0 a 0.23 0.23 0 1 0 -0.46 0 ZM 51.16 69.80 m -0.30 0 a 0.30 0.30 0 1 0 0.60 0 a 0.30 0.30 0 1 0 -0.60 0 ZM 26.36 118.15 m -0.22 0 a 0.22 0.22 0 1 0 0.44 0 a 0.22 0.22 0 1 0 -0.44 0 ZM 13.50 114.74 m -0.34 0 a 0.34 0.34 0 1 0 0.68 0 a 0.34 0.34 0 1 0 -0.68 0 ZM 84.95 80.21 m -0.31 0 a 0.31 0.31 0 1 0 0.61 0 a 0.31 0.31 0 1 0 -0.61 0 ZM 93.71 111.19 m -0.21 0 a 0.21 0.21 0 1 0 0.41 0 a 0.21 0.21 0 1 0 -0.41 0 ZM 7.13 88.62 m -0.27 0 a 0.27 0.27 0 1 0 0.53 0 a 0.27 0.27 0 1 0 -0.53 0 ZM 63.55 119.09 m -0.16 0 a 0.16 0.16 0 1 0 0.32 0 a 0.16 0.16 0 1 0 -0.32 0 ZM 66.91 76.87 m -0.14 0 a 0.14 0.14 0 1 0 0.28 0 a 0.14 0.14 0 1 0 -0.28 0 ZM 34.47 83.43 m -0.24 0 a 0.24 0.24 0 1 0 0.48 0 a 0.24 0.24 0 1 0 -0.48 0 ZM 32.35 109.34 m -0.14 0 a 0.14 0.14 0 1 0 0.28 0 a 0.14 0.14 0 1 0 -0.28 0 ZM 17.36 73.93 m -0.30 0 a 0.30 0.30 0 1 0 0.60 0 a 0.30 0.30 0 1 0 -0.60 0 ZM 64.42 65.40 m -0.23 0 a 0.23 0.23 0 1 0 0.46 0 a 0.23 0.23 0 1 0 -0.46 0 ZM 9.46 100.33 m -0.24 0 a 0.24 0.24 0 1 0 0.48 0 a 0.24 0.24 0 1 0 -0.48 0 ZM 25.56 79.80 m -0.14 0 a 0.14 0.14 0 1 0 0.27 0 a 0.14 0.14 0 1 0 -0.27 0 ZM 34.96 88.01 m -0.14 0 a 0.14 0.14 0 1 0 0.28 0 a 0.14 0.14 0 1 0 -0.28 0 ZM 68.79 69.89 m -0.16 0 a 0.16 0.16 0 1 0 0.31 0 a 0.16 0.16 0 1 0 -0.31 0 ZM 47.41 85.04 m -0.21 0 a 0.21 0.21 0 1 0 0.43 0 a 0.21 0.21 0 1 0 -0.43 0 ZM 51.44 93.58 m -0.23 0 a 0.23 0.23 0 1 0 0.47 0 a 0.23 0.23 0 1 0 -0.47 0 ZM 11.11 70.08 m -0.24 0 a 0.24 0.24 0 1 0 0.48 0 a 0.24 0.24 0 1 0 -0.48 0 ZM 21.32 114.38 m -0.18 0 a 0.18 0.18 0 1 0 0.36 0 a 0.18 0.18 0 1 0 -0.36 0 ZM 23.85 104.28 m -0.26 0 a 0.26 0.26 0 1 0 0.53 0 a 0.26 0.26 0 1 0 -0.53 0 ZM 71.76 119.03 m -0.33 0 a 0.33 0.33 0 1 0 0.67 0 a 0.33 0.33 0 1 0 -0.67 0 ZM 65.48 81.58 m -0.20 0 a 0.20 0.20 0 1 0 0.39 0 a 0.20 0.20 0 1 0 -0.39 0 ZM 70.38 115.41 m -0.34 0 a 0.34 0.34 0 1 0 0.68 0 a 0.34 0.34 0 1 0 -0.68 0 ZM 70.07 84.83 m -0.27 0 a 0.27 0.27 0 1 0 0.54 0 a 0.27 0.27 0 1 0 -0.54 0 ZM 85.69 73.74 m -0.32 0 a 0.32 0.32 0 1 0 0.64 0 a 0.32 0.32 0 1 0 -0.64 0 ZM 53.31 103.04 m -0.26 0 a 0.26 0.26 0 1 0 0.52 0 a 0.26 0.26 0 1 0 -0.52 0 ZM 16.67 76.51 m -0.21 0 a 0.21 0.21 0 1 0 0.41 0 a 0.21 0.21 0 1 0 -0.41 0 ZM 34.04 69.71 m -0.25 0 a 0.25 0.25 0 1 0 0.50 0 a 0.25 0.25 0 1 0 -0.50 0 ZM 80.03 107.93 m -0.18 0 a 0.18 0.18 0 1 0 0.36 0 a 0.18 0.18 0 1 0 -0.36 0 ZM 61.45 98.34 m -0.15 0 a 0.15 0.15 0 1 0 0.29 0 a 0.15 0.15 0 1 0 -0.29 0 ZM 28.98 77.77 m -0.16 0 a 0.16 0.16 0 1 0 0.32 0 a 0.16 0.16 0 1 0 -0.32 0 ZM 46.33 83.47 m -0.32 0 a 0.32 0.32 0 1 0 0.64 0 a 0.32 0.32 0 1 0 -0.64 0 ZM 27.86 93.46 m -0.17 0 a 0.17 0.17 0 1 0 0.35 0 a 0.17 0.17 0 1 0 -0.35 0 ZM 15.37 79.72 m -0.34 0 a 0.34 0.34 0 1 0 0.69 0 a 0.34 0.34 0 1 0 -0.69 0 ZM 9.27 105.39 m -0.24 0 a 0.24 0.24 0 1 0 0.47 0 a 0.24 0.24 0 1 0 -0.47 0 ZM 57.54 118.77 m -0.24 0 a 0.24 0.24 0 1 0 0.48 0 a 0.24 0.24 0 1 0 -0.48 0 ZM 40.32 101.30 m -0.20 0 a 0.20 0.20 0 1 0 0.39 0 a 0.20 0.20 0 1 0 -0.39 0 ZM 53.66 78.65 m -0.23 0 a 0.23 0.23 0 1 0 0.47 0 a 0.23 0.23 0 1 0 -0.47 0 ZM 47.19 67.19 m -0.21 0 a 0.21 0.21 0 1 0 0.42 0 a 0.21 0.21 0 1 0 -0.42 0 ZM 26.86 107.77 m -0.15 0 a 0.15 0.15 0 1 0 0.29 0 a 0.15 0.15 0 1 0 -0.29 0 ZM 22.53 118.73 m -0.30 0 a 0.30 0.30 0 1 0 0.60 0 a 0.30 0.30 0 1 0 -0.60 0 ZM 89.97 95.98 m -0.19 0 a 0.19 0.19 0 1 0 0.37 0 a 0.19 0.19 0 1 0 -0.37 0 ZM 14.28 102.35 m -0.25 0 a 0.25 0.25 0 1 0 0.51 0 a 0.25 0.25 0 1 0 -0.51 0 ZM 10.08 115.01 m -0.19 0 a 0.19 0.19 0 1 0 0.37 0 a 0.19 0.19 0 1 0 -0.37 0 ZM 41.39 111.12 m -0.17 0 a 0.17 0.17 0 1 0 0.34 0 a 0.17 0.17 0 1 0 -0.34 0 ZM 30.02 103.76 m -0.24 0 a 0.24 0.24 0 1 0 0.48 0 a 0.24 0.24 0 1 0 -0.48 0 ZM 28.80 112.57 m -0.17 0 a 0.17 0.17 0 1 0 0.33 0 a 0.17 0.17 0 1 0 -0.33 0 ZM 14.84 94.06 m -0.17 0 a 0.17 0.17 0 1 0 0.33 0 a 0.17 0.17 0 1 0 -0.33 0 ZM 73.57 90.97 m -0.21 0 a 0.21 0.21 0 1 0 0.41 0 a 0.21 0.21 0 1 0 -0.41 0 ZM 36.95 67.66 m -0.25 0 a 0.25 0.25 0 1 0 0.49 0 a 0.25 0.25 0 1 0 -0.49 0 ZM 68.24 87.77 m -0.31 0 a 0.31 0.31 0 1 0 0.61 0 a 0.31 0.31 0 1 0 -0.61 0 ZM 24.01 79.48 m -0.26 0 a 0.26 0.26 0 1 0 0.52 0 a 0.26 0.26 0 1 0 -0.52 0 ZM 93.38 86.12 m -0.33 0 a 0.33 0.33 0 1 0 0.66 0 a 0.33 0.33 0 1 0 -0.66 0 ZM 44.02 117.19 m -0.29 0 a 0.29 0.29 0 1 0 0.58 0 a 0.29 0.29 0 1 0 -0.58 0 ZM 84.57 118.02 m -0.33 0 a 0.33 0.33 0 1 0 0.65 0 a 0.33 0.33 0 1 0 -0.65 0 ZM 40.76 85.28 m -0.25 0 a 0.25 0.25 0 1 0 0.50 0 a 0.25 0.25 0 1 0 -0.50 0 ZM 59.42 76.14 m -0.25 0 a 0.25 0.25 0 1 0 0.50 0 a 0.25 0.25 0 1 0 -0.50 0 ZM 51.73 82.28 m -0.29 0 a 0.29 0.29 0 1 0 0.57 0 a 0.29 0.29 0 1 0 -0.57 0 ZM 21.83 69.91 m -0.32 0 a 0.32 0.32 0 1 0 0.65 0 a 0.32 0.32 0 1 0 -0.65 0 ZM 69.62 111.18 m -0.24 0 a 0.24 0.24 0 1 0 0.48 0 a 0.24 0.24 0 1 0 -0.48 0 ZM 60.39 101.16 m -0.17 0 a 0.17 0.17 0 1 0 0.33 0 a 0.17 0.17 0 1 0 -0.33 0 ZM 14.57 85.25 m -0.33 0 a 0.33 0.33 0 1 0 0.65 0 a 0.33 0.33 0 1 0 -0.65 0 ZM 27.82 68.89 m -0.30 0 a 0.30 0.30 0 1 0 0.60 0 a 0.30 0.30 0 1 0 -0.60 0 ZM 80.46 106.12 m -0.31 0 a 0.31 0.31 0 1 0 0.63 0 a 0.31 0.31 0 1 0 -0.63 0 ZM 27.25 111.43 m -0.15 0 a 0.15 0.15 0 1 0 0.31 0 a 0.15 0.15 0 1 0 -0.31 0 ZM 8.18 89.80 m -0.15 0 a 0.15 0.15 0 1 0 0.30 0 a 0.15 0.15 0 1 0 -0.30 0 ZM 68.89 102.96 m -0.22 0 a 0.22 0.22 0 1 0 0.44 0 a 0.22 0.22 0 1 0 -0.44 0 ZM 79.65 74.17 m -0.31 0 a 0.31 0.31 0 1 0 0.62 0 a 0.31 0.31 0 1 0 -0.62 0 ZM 78.75 97.80 m -0.24 0 a 0.24 0.24 0 1 0 0.48 0 a 0.24 0.24 0 1 0 -0.48 0 ZM 26.66 110.56 m -0.32 0 a 0.32 0.32 0 1 0 0.64 0 a 0.32 0.32 0 1 0 -0.64 0 ZM 90.82 73.29 m -0.22 0 a 0.22 0.22 0 1 0 0.45 0 a 0.22 0.22 0 1 0 -0.45 0 ZM 47.42 71.41 m -0.29 0 a 0.29 0.29 0 1 0 0.58 0 a 0.29 0.29 0 1 0 -0.58 0 ZM 83.39 118.11 m -0.33 0 a 0.33 0.33 0 1 0 0.67 0 a 0.33 0.33 0 1 0 -0.67 0 ZM 31.45 112.40 m -0.22 0 a 0.22 0.22 0 1 0 0.44 0 a 0.22 0.22 0 1 0 -0.44 0 ZM 6.89 73.88 m -0.25 0 a 0.25 0.25 0 1 0 0.51 0 a 0.25 0.25 0 1 0 -0.51 0 ZM 61.98 102.63 m -0.32 0 a 0.32 0.32 0 1 0 0.64 0 a 0.32 0.32 0 1 0 -0.64 0 ZM 31.62 104.92 m -0.25 0 a 0.25 0.25 0 1 0 0.49 0 a 0.25 0.25 0 1 0 -0.49 0 ZM 25.66 79.58 m -0.18 0 a 0.18 0.18 0 1 0 0.36 0 a 0.18 0.18 0 1 0 -0.36 0 ZM 75.49 66.09 m -0.30 0 a 0.30 0.30 0 1 0 0.60 0 a 0.30 0.30 0 1 0 -0.60 0 ZM 54.97 83.89 m -0.29 0 a 0.29 0.29 0 1 0 0.58 0 a 0.29 0.29 0 1 0 -0.58 0 Z"/></g><path d="M 50 67 C 42 68, 34 71, 28 76 C 22 80, 17 84, 14 90 C 10 98, 8 108, 7 120 L 93 120 C 92 108, 90 98, 86 90 C 83 84, 78 80, 72 76 C 66 71, 58 68, 50 67 Z" fill="none" stroke="#1b1b1a" stroke-width="0.378" stroke-linejoin="round" stroke-linecap="round"/><clipPath id="e2118"><path d="M 41 58 L 59 58 L 59 74 C 55 78, 45 78, 41 74 Z"/></clipPath><g clip-path="url(#e2118)" fill="#1b1b1a"><path d="M 62.45 46.20 Q 67.28 61.91 72.18 75.12 Q 68.09 61.64 62.45 46.20 ZM 61.37 48.50 Q 64.35 59.32 69.72 75.44 Q 65.03 59.11 61.37 48.50 ZM 58.46 46.28 Q 63.60 63.47 69.03 79.32 Q 64.25 63.26 58.46 46.28 ZM 56.96 49.72 Q 62.94 68.84 66.77 79.41 Q 63.56 68.64 56.96 49.72 ZM 55.29 50.93 Q 58.86 63.03 65.08 81.26 Q 59.46 62.83 55.29 50.93 ZM 53.49 51.24 Q 59.41 70.69 62.94 80.65 Q 60.01 70.50 53.49 51.24 ZM 50.98 50.27 Q 54.42 62.17 61.08 82.00 Q 55.06 61.97 50.98 50.27 ZM 49.00 50.40 Q 54.95 70.74 59.16 82.57 Q 55.81 70.47 49.00 50.40 ZM 47.70 53.62 Q 52.54 69.77 56.97 81.69 Q 53.43 69.47 47.70 53.62 ZM 45.45 53.39 Q 51.20 72.20 55.14 83.31 Q 51.82 72.01 45.45 53.39 ZM 43.07 52.05 Q 46.91 65.47 52.98 83.04 Q 47.73 65.21 43.07 52.05 ZM 41.06 53.92 Q 45.60 68.60 51.78 85.41 Q 46.42 68.32 41.06 53.92 ZM 39.57 54.56 Q 44.99 72.40 48.78 83.17 Q 45.58 72.21 39.57 54.56 ZM 37.55 54.49 Q 43.14 72.57 47.09 83.53 Q 43.76 72.36 37.55 54.49 ZM 35.01 54.66 Q 38.97 67.51 44.95 84.39 Q 39.58 67.31 35.01 54.66 ZM 33.67 57.81 Q 38.18 72.68 42.39 84.12 Q 38.94 72.43 33.67 57.81 ZM 32.33 58.62 Q 35.76 70.75 40.91 86.17 Q 36.39 70.56 32.33 58.62 ZM 29.49 57.17 Q 33.64 70.93 39.16 87.09 Q 34.19 70.75 29.49 57.17 Z"/></g><clipPath id="e2119"><path d="M 41 59 C 45 66, 55 66, 59 59 L 59 76 C 55 79, 45 79, 41 76 Z"/></clipPath><g clip-path="url(#e2119)" fill="#1b1b1a"><path d="M 62.38 49.85 Q 65.81 62.16 72.25 79.11 Q 67.11 61.72 62.38 49.85 ZM 61.04 48.45 Q 64.08 60.19 70.02 76.17 Q 65.46 59.74 61.04 48.45 ZM 60.50 49.61 Q 63.25 60.62 69.08 76.63 Q 64.61 60.19 60.50 49.61 ZM 58.75 47.61 Q 64.09 66.06 68.93 79.21 Q 65.18 65.71 58.75 47.61 ZM 58.60 50.27 Q 61.76 61.63 67.95 79.19 Q 62.68 61.33 58.60 50.27 ZM 57.19 49.42 Q 62.69 67.53 67.54 79.70 Q 63.92 67.11 57.19 49.42 ZM 56.86 50.90 Q 59.63 61.20 66.34 78.99 Q 60.90 60.77 56.86 50.90 ZM 55.47 49.47 Q 61.03 68.47 65.29 79.96 Q 62.04 68.14 55.47 49.47 ZM 54.39 49.23 Q 57.23 59.44 63.52 77.54 Q 58.05 59.17 54.39 49.23 ZM 53.29 49.17 Q 58.04 65.13 63.28 79.86 Q 58.85 64.87 53.29 49.17 ZM 53.16 52.44 Q 56.36 64.01 62.86 81.09 Q 57.64 63.57 53.16 52.44 ZM 51.78 50.85 Q 55.90 65.79 60.87 79.35 Q 57.07 65.41 51.78 50.85 ZM 50.32 49.93 Q 54.94 66.23 60.95 82.09 Q 56.33 65.77 50.32 49.93 ZM 49.46 50.74 Q 55.89 71.72 60.12 82.40 Q 57.03 71.33 49.46 50.74 ZM 48.29 50.19 Q 53.60 67.87 59.28 82.86 Q 54.74 67.49 48.29 50.19 ZM 49.26 54.89 Q 52.77 67.95 58.10 82.81 Q 53.90 67.59 49.26 54.89 ZM 47.41 51.99 Q 51.66 67.87 56.73 81.95 Q 52.92 67.48 47.41 51.99 ZM 46.99 55.28 Q 50.13 66.30 56.48 83.31 Q 51.19 65.94 46.99 55.28 ZM 45.98 54.75 Q 49.25 66.10 55.08 82.21 Q 50.13 65.80 45.98 54.75 ZM 44.90 54.06 Q 49.94 71.38 53.71 80.69 Q 51.18 70.97 44.90 54.06 ZM 43.28 52.43 Q 46.93 65.56 52.68 80.52 Q 48.27 65.11 43.28 52.43 ZM 42.76 54.46 Q 45.52 64.32 52.10 81.91 Q 46.59 63.96 42.76 54.46 ZM 42.31 54.51 Q 45.20 66.09 51.00 82.66 Q 46.45 65.70 42.31 54.51 ZM 41.97 56.34 Q 45.05 67.65 50.60 84.01 Q 45.86 67.40 41.97 56.34 ZM 41.25 57.09 Q 44.41 69.47 49.69 84.29 Q 45.65 69.09 41.25 57.09 ZM 40.41 57.51 Q 43.90 70.45 48.42 83.32 Q 44.86 70.15 40.41 57.51 ZM 39.07 56.42 Q 42.70 69.83 47.68 83.74 Q 43.78 69.49 39.07 56.42 ZM 37.48 55.29 Q 40.62 66.23 46.61 83.17 Q 41.42 65.96 37.48 55.29 ZM 37.46 58.10 Q 42.81 76.27 47.16 87.16 Q 44.10 75.84 37.46 58.10 ZM 35.73 55.38 Q 41.42 75.32 45.79 87.45 Q 42.44 75.00 35.73 55.38 ZM 35.31 58.41 Q 39.16 71.76 44.46 85.76 Q 40.27 71.39 35.31 58.41 ZM 33.38 55.91 Q 37.21 68.83 43.11 84.53 Q 38.21 68.49 33.38 55.91 ZM 33.05 56.76 Q 35.84 67.77 42.65 87.62 Q 37.00 67.41 33.05 56.76 ZM 32.65 58.84 Q 37.73 76.09 41.52 86.17 Q 38.66 75.79 32.65 58.84 ZM 31.64 58.20 Q 34.84 70.50 40.90 87.74 Q 36.04 70.13 31.64 58.20 ZM 30.93 59.26 Q 33.66 70.19 39.69 87.31 Q 34.90 69.80 30.93 59.26 ZM 30.42 60.79 Q 35.18 77.23 39.35 88.51 Q 36.15 76.92 30.42 60.79 ZM 29.24 60.13 Q 33.51 75.04 38.19 87.66 Q 34.56 74.70 29.24 60.13 Z"/><path d="M 72.45 67.09 Q 61.18 82.02 54.57 91.37 Q 61.53 82.28 72.45 67.09 ZM 70.68 64.00 Q 64.60 72.24 53.28 88.52 Q 64.90 72.46 70.68 64.00 ZM 67.07 64.64 Q 61.31 72.09 51.26 86.09 Q 61.65 72.35 67.07 64.64 ZM 66.16 60.04 Q 53.81 76.77 47.66 85.71 Q 54.20 77.05 66.16 60.04 ZM 63.87 58.38 Q 55.96 69.03 46.67 82.35 Q 56.31 69.28 63.87 58.38 ZM 61.35 56.89 Q 53.30 67.88 42.36 83.80 Q 53.69 68.15 61.35 56.89 ZM 59.10 55.64 Q 52.69 63.86 40.99 80.14 Q 53.12 64.18 59.10 55.64 ZM 55.71 54.64 Q 43.81 70.53 37.70 79.20 Q 44.12 70.76 55.71 54.64 ZM 54.13 52.73 Q 47.28 61.47 35.94 77.12 Q 47.70 61.78 54.13 52.73 ZM 51.07 52.38 Q 42.78 63.07 33.53 75.79 Q 43.14 63.34 51.07 52.38 ZM 49.34 48.70 Q 40.07 61.45 31.17 74.33 Q 40.38 61.67 49.34 48.70 ZM 46.87 46.78 Q 37.35 59.56 29.99 70.12 Q 37.71 59.82 46.87 46.78 ZM 45.01 44.98 Q 37.39 55.13 27.79 68.83 Q 37.77 55.40 45.01 44.98 Z"/></g><path d="M 41 58 L 59 58 L 59 74 C 55 78, 45 78, 41 74 Z" fill="none" stroke="#1b1b1a" stroke-width="0.306" stroke-linejoin="round" stroke-linecap="round"/><clipPath id="e2120"><path d="M 68 34 C 75 32, 75 46, 67 45 Z M 32 34 C 25 32, 25 46, 33 45 Z"/></clipPath><g clip-path="url(#e2120)" fill="#1b1b1a"><path d="M 66.30 -45.01 Q 102.22 -0.88 129.81 31.70 Q 102.95 -1.49 66.30 -45.01 ZM 58.47 -49.83 Q 100.30 -0.77 126.57 29.05 Q 100.90 -1.29 58.47 -49.83 ZM 58.52 -48.13 Q 90.99 -9.13 122.25 27.28 Q 91.56 -9.62 58.52 -48.13 ZM 59.45 -44.99 Q 81.32 -17.97 118.15 26.13 Q 81.84 -18.39 59.45 -44.99 ZM 51.95 -51.13 Q 87.42 -7.14 121.90 34.48 Q 87.99 -7.61 51.95 -51.13 ZM 54.75 -44.15 Q 93.09 3.24 116.12 30.39 Q 93.90 2.57 54.75 -44.15 ZM 58.52 -36.74 Q 86.04 -2.46 116.36 33.80 Q 86.74 -3.04 58.52 -36.74 ZM 53.62 -40.36 Q 84.76 -1.46 115.92 35.99 Q 85.48 -2.05 53.62 -40.36 ZM 51.54 -39.61 Q 74.45 -11.14 111.29 32.61 Q 75.21 -11.78 51.54 -39.61 ZM 46.84 -41.27 Q 70.27 -12.97 115.55 39.71 Q 70.95 -13.55 46.84 -41.27 ZM 52.17 -32.93 Q 84.33 6.81 115.62 44.14 Q 85.00 6.27 52.17 -32.93 ZM 41.97 -40.77 Q 76.91 0.54 114.67 44.18 Q 77.38 0.13 41.97 -40.77 ZM 45.55 -34.19 Q 83.01 10.21 105.22 35.70 Q 83.53 9.77 45.55 -34.19 ZM 43.18 -34.28 Q 64.39 -8.39 103.06 36.82 Q 65.09 -8.98 43.18 -34.28 ZM 37.72 -36.56 Q 68.53 -0.18 108.09 44.91 Q 69.23 -0.78 37.72 -36.56 ZM 44.91 -25.36 Q 75.77 11.39 102.71 42.03 Q 76.53 10.73 44.91 -25.36 ZM 40.46 -28.98 Q 82.62 22.27 108.24 52.24 Q 83.34 21.67 40.46 -28.98 ZM 43.00 -22.70 Q 71.90 12.56 97.98 43.23 Q 72.50 12.06 43.00 -22.70 ZM 34.25 -29.45 Q 62.72 5.08 95.24 42.97 Q 63.44 4.48 34.25 -29.45 ZM 32.88 -29.41 Q 69.16 15.70 102.48 56.04 Q 69.71 15.25 32.88 -29.41 ZM 29.70 -28.48 Q 61.60 9.40 99.42 52.95 Q 62.21 8.88 29.70 -28.48 ZM 33.17 -22.58 Q 74.08 26.90 100.27 57.30 Q 74.85 26.26 33.17 -22.58 ZM 35.18 -17.56 Q 63.16 16.57 98.87 58.39 Q 63.91 15.94 35.18 -17.56 ZM 24.61 -27.27 Q 63.65 19.90 92.33 53.53 Q 64.23 19.42 24.61 -27.27 ZM 30.78 -16.60 Q 56.61 14.18 89.85 52.65 Q 57.10 13.75 30.78 -16.60 ZM 31.10 -14.27 Q 62.40 24.57 86.56 53.36 Q 63.06 24.03 31.10 -14.27 ZM 28.72 -13.37 Q 62.36 27.03 92.07 61.75 Q 62.86 26.61 28.72 -13.37 ZM 25.98 -13.22 Q 57.30 24.58 90.45 63.04 Q 58.05 23.95 25.98 -13.22 ZM 20.01 -19.00 Q 61.85 32.64 85.63 61.10 Q 62.42 32.18 20.01 -19.00 ZM 24.24 -9.77 Q 46.37 16.65 81.07 56.54 Q 46.96 16.14 24.24 -9.77 ZM 24.78 -7.66 Q 45.70 18.62 78.67 58.00 Q 46.48 17.98 24.78 -7.66 ZM 20.54 -7.93 Q 46.73 23.27 83.28 65.13 Q 47.43 22.68 20.54 -7.93 ZM 15.53 -13.04 Q 40.20 17.81 75.93 60.62 Q 40.95 17.19 15.53 -13.04 ZM 11.55 -15.49 Q 44.21 25.12 83.51 72.70 Q 44.79 24.65 11.55 -15.49 ZM 18.69 -2.17 Q 39.06 22.18 77.14 65.59 Q 39.78 21.55 18.69 -2.17 ZM 10.43 -11.05 Q 54.24 42.70 78.14 71.21 Q 54.76 42.27 10.43 -11.05 ZM 9.15 -8.40 Q 34.69 22.74 73.29 67.98 Q 35.41 22.13 9.15 -8.40 ZM 8.63 -5.18 Q 35.23 26.30 71.20 67.43 Q 35.84 25.78 8.63 -5.18 ZM 5.33 -7.20 Q 38.28 32.25 75.43 75.52 Q 38.84 31.78 5.33 -7.20 ZM 9.38 0.93 Q 33.84 30.05 66.23 67.22 Q 34.43 29.55 9.38 0.93 ZM 9.38 2.97 Q 34.85 34.01 66.25 71.15 Q 35.34 33.60 9.38 2.97 ZM 4.88 -0.72 Q 42.42 45.86 70.54 79.75 Q 42.98 45.40 4.88 -0.72 ZM 7.12 7.05 Q 35.18 40.40 62.12 71.14 Q 35.82 39.84 7.12 7.05 ZM -1.74 -2.13 Q 32.28 40.14 68.92 84.49 Q 32.84 39.68 -1.74 -2.13 ZM 2.27 6.72 Q 27.99 37.85 64.11 80.37 Q 28.48 37.44 2.27 6.72 ZM 1.18 8.12 Q 32.02 45.64 64.44 83.72 Q 32.68 45.09 1.18 8.12 ZM -5.16 4.22 Q 41.08 59.43 65.68 87.71 Q 41.78 58.83 -5.16 4.22 ZM -3.86 8.31 Q 33.00 52.73 60.45 84.78 Q 33.58 52.24 -3.86 8.31 ZM -3.81 11.54 Q 29.12 51.43 52.44 78.68 Q 29.70 50.94 -3.81 11.54 ZM -8.33 10.08 Q 19.66 43.11 54.04 82.20 Q 20.32 42.54 -8.33 10.08 ZM -6.28 13.40 Q 30.97 59.68 57.99 92.02 Q 31.67 59.11 -6.28 13.40 ZM -12.69 9.98 Q 9.42 36.90 51.75 86.22 Q 10.17 36.27 -12.69 9.98 ZM -9.27 16.83 Q 11.48 41.90 52.06 88.83 Q 12.18 41.30 -9.27 16.83 ZM -15.52 12.80 Q 24.37 60.01 50.14 89.46 Q 25.00 59.47 -15.52 12.80 ZM -19.17 10.08 Q 10.44 46.43 45.65 88.55 Q 10.93 46.02 -19.17 10.08 ZM -13.10 21.67 Q 21.07 62.54 42.94 87.49 Q 21.80 61.92 -13.10 21.67 ZM -20.95 14.47 Q 16.50 59.72 47.57 96.27 Q 17.03 59.27 -20.95 14.47 ZM -14.41 24.81 Q 20.27 67.66 40.51 91.86 Q 20.77 67.25 -14.41 24.81 ZM -21.25 20.46 Q 0.91 47.20 39.24 91.98 Q 1.44 46.75 -21.25 20.46 ZM -19.76 24.63 Q 4.77 54.54 39.49 95.07 Q 5.50 53.92 -19.76 24.63 ZM -26.30 19.46 Q 6.96 60.03 43.42 103.11 Q 7.62 59.48 -26.30 19.46 ZM -23.70 27.05 Q 6.93 63.17 43.39 104.86 Q 7.53 62.66 -23.70 27.05 Z"/></g><path d="M 68 34 C 75 32, 75 46, 67 45 Z M 32 34 C 25 32, 25 46, 33 45 Z" fill="none" stroke="#1b1b1a" stroke-width="0.306" stroke-linejoin="round" stroke-linecap="round"/><clipPath id="e2121"><path d="M 50 17 C 66.34 18, 69 30, 69 41 C 69 51, 63.68 59.040000000000006, 50 69.12 C 36.32 59.040000000000006, 31 51, 31 41 C 31 30, 33.66 18, 50 17 Z"/></clipPath><g clip-path="url(#e2121)" fill="#1b1b1a"><path d="M 86.17 -19.09 Q 100.61 32.50 112.75 74.63 Q 100.96 32.41 86.17 -19.09 ZM 83.87 -17.52 Q 99.68 41.79 109.33 76.61 Q 100.10 41.67 83.87 -17.52 ZM 81.86 -13.92 Q 91.22 21.71 106.78 77.76 Q 91.82 21.55 81.86 -13.92 ZM 80.38 -7.48 Q 94.58 44.49 104.60 79.87 Q 94.97 44.38 80.38 -7.48 ZM 77.15 -5.23 Q 90.03 39.98 100.96 76.46 Q 90.57 39.82 77.15 -5.23 ZM 74.10 -9.14 Q 88.22 42.79 96.01 69.87 Q 88.74 42.64 74.10 -9.14 ZM 70.88 -8.11 Q 80.47 24.66 95.89 75.60 Q 80.84 24.55 70.88 -8.11 ZM 67.96 -9.70 Q 81.33 38.51 93.67 80.99 Q 81.88 38.36 67.96 -9.70 ZM 66.31 -3.80 Q 80.11 44.61 88.17 71.62 Q 80.54 44.49 66.31 -3.80 ZM 60.97 -13.55 Q 77.21 45.80 88.23 84.73 Q 77.62 45.68 60.97 -13.55 ZM 57.79 -12.25 Q 71.47 34.94 82.75 72.54 Q 71.87 34.83 57.79 -12.25 ZM 57.72 -5.04 Q 70.10 41.65 79.25 74.22 Q 70.67 41.50 57.72 -5.04 ZM 53.86 -8.53 Q 68.90 47.18 80.21 87.36 Q 69.41 47.04 53.86 -8.53 ZM 49.90 -8.48 Q 63.25 38.39 76.06 81.69 Q 63.71 38.25 49.90 -8.48 ZM 48.79 -3.30 Q 63.43 49.12 74.78 87.74 Q 64.03 48.95 48.79 -3.30 ZM 46.74 -0.27 Q 57.78 38.86 69.29 78.05 Q 58.20 38.74 46.74 -0.27 ZM 43.90 -2.20 Q 53.05 32.04 68.44 86.74 Q 53.61 31.88 43.90 -2.20 ZM 41.59 3.84 Q 49.66 32.10 63.86 79.24 Q 50.17 31.95 41.59 3.84 ZM 39.91 6.86 Q 47.77 36.31 60.36 81.74 Q 48.11 36.21 39.91 6.86 ZM 35.70 4.07 Q 47.16 44.85 58.43 82.78 Q 47.73 44.68 35.70 4.07 ZM 32.85 1.11 Q 43.21 39.73 58.12 93.41 Q 43.61 39.62 32.85 1.11 ZM 30.62 7.19 Q 39.64 38.32 53.35 83.40 Q 40.13 38.18 30.62 7.19 ZM 26.77 4.86 Q 36.71 39.49 51.35 88.74 Q 37.09 39.38 26.77 4.86 ZM 22.65 -0.90 Q 31.02 30.13 46.55 84.53 Q 31.59 29.97 22.65 -0.90 ZM 22.01 6.85 Q 31.24 40.55 46.22 92.32 Q 31.82 40.39 22.01 6.85 ZM 16.37 2.06 Q 32.83 57.33 42.40 88.36 Q 33.23 57.21 16.37 2.06 ZM 15.19 8.47 Q 25.70 44.56 39.26 88.77 Q 26.27 44.39 15.19 8.47 ZM 11.20 4.36 Q 27.57 59.81 37.27 91.55 Q 27.96 59.69 11.20 4.36 ZM 10.45 9.89 Q 23.07 54.43 33.54 89.40 Q 23.65 54.27 10.45 9.89 ZM 5.56 4.48 Q 19.34 52.52 31.51 93.45 Q 19.76 52.40 5.56 4.48 ZM 5.28 9.81 Q 13.92 43.00 27.30 91.31 Q 14.52 42.84 5.28 9.81 ZM 2.57 13.18 Q 16.90 63.24 26.33 94.36 Q 17.49 63.07 2.57 13.18 ZM -0.73 11.56 Q 10.16 51.18 23.86 98.75 Q 10.69 51.03 -0.73 11.56 ZM -4.92 9.15 Q 8.39 56.73 19.35 94.57 Q 8.79 56.62 -4.92 9.15 ZM -7.30 8.46 Q 1.98 43.68 16.16 95.34 Q 2.41 43.56 -7.30 8.46 ZM -9.26 12.58 Q 1.45 52.85 14.19 98.99 Q 1.86 52.74 -9.26 12.58 Z"/></g><g clip-path="url(#hcholdRiftp3)"><clipPath id="e2122"><path d="M 50 17 L 71 20 L 71 69.12 L 50 69.12 Z"/></clipPath><g clip-path="url(#e2122)" fill="#1b1b1a"><path d="M 95.90 -1.69 Q 102.65 24.05 114.95 67.31 Q 103.32 23.86 95.90 -1.69 ZM 94.78 1.02 Q 102.49 29.87 111.65 60.87 Q 103.27 29.65 94.78 1.02 ZM 92.41 -0.04 Q 101.33 31.91 113.20 69.72 Q 102.43 31.58 92.41 -0.04 ZM 88.90 -6.18 Q 96.28 20.98 111.60 71.53 Q 97.30 20.68 88.90 -6.18 ZM 89.14 -0.50 Q 101.11 44.23 109.54 72.04 Q 102.24 43.92 89.14 -0.50 ZM 86.57 -4.72 Q 98.56 39.84 108.21 73.28 Q 99.25 39.65 86.57 -4.72 ZM 83.42 -5.51 Q 95.27 35.27 105.22 66.44 Q 96.20 34.99 83.42 -5.51 ZM 83.34 -3.48 Q 96.87 46.05 105.49 74.65 Q 97.82 45.78 83.34 -3.48 ZM 82.97 0.26 Q 91.83 34.55 102.21 70.34 Q 92.87 34.27 82.97 0.26 ZM 82.64 5.37 Q 92.84 44.45 99.77 67.66 Q 93.85 44.18 82.64 5.37 ZM 78.27 -1.63 Q 91.28 43.77 100.57 74.12 Q 91.94 43.58 78.27 -1.63 ZM 78.43 2.44 Q 85.46 30.56 98.29 75.62 Q 86.58 30.25 78.43 2.44 ZM 75.71 -0.91 Q 85.00 34.66 97.05 76.03 Q 86.06 34.36 75.71 -0.91 ZM 74.59 1.09 Q 85.65 42.32 92.99 67.04 Q 86.46 42.09 74.59 1.09 ZM 73.42 1.71 Q 83.70 41.51 93.47 75.21 Q 84.77 41.22 73.42 1.71 ZM 71.39 2.29 Q 79.67 33.36 91.37 72.47 Q 80.70 33.06 71.39 2.29 ZM 70.32 3.09 Q 80.04 40.11 89.09 70.64 Q 81.09 39.81 70.32 3.09 ZM 69.62 6.85 Q 79.71 45.65 88.89 77.03 Q 80.75 45.36 69.62 6.85 ZM 65.82 0.64 Q 79.58 49.21 88.51 78.50 Q 80.31 49.00 65.82 0.64 ZM 66.93 9.27 Q 74.93 40.53 86.24 79.69 Q 76.00 40.23 66.93 9.27 ZM 62.91 0.80 Q 73.34 40.55 82.11 70.39 Q 74.34 40.28 62.91 0.80 ZM 63.85 9.97 Q 69.71 32.96 80.91 71.59 Q 70.64 32.70 63.85 9.97 ZM 59.83 5.34 Q 70.18 41.74 81.45 77.46 Q 71.21 41.43 59.83 5.34 ZM 57.89 2.39 Q 69.86 47.48 78.52 76.52 Q 70.93 47.18 57.89 2.39 ZM 56.24 2.76 Q 68.21 46.89 76.76 76.09 Q 68.91 46.70 56.24 2.76 ZM 56.57 13.16 Q 62.41 34.28 74.44 71.97 Q 63.47 33.96 56.57 13.16 ZM 52.99 4.06 Q 62.01 38.23 74.71 81.58 Q 63.03 37.94 52.99 4.06 ZM 50.84 6.03 Q 57.80 30.82 71.51 74.85 Q 58.69 30.55 50.84 6.03 ZM 49.54 7.87 Q 57.45 36.20 72.06 82.97 Q 58.52 35.88 49.54 7.87 ZM 50.16 14.21 Q 61.01 53.15 68.33 76.68 Q 61.89 52.89 50.16 14.21 ZM 46.08 7.42 Q 57.94 48.37 67.64 78.90 Q 58.84 48.10 46.08 7.42 ZM 47.07 12.59 Q 55.53 45.39 64.63 76.97 Q 56.44 45.14 47.07 12.59 ZM 43.45 7.29 Q 54.14 47.55 63.31 78.42 Q 55.16 47.27 43.45 7.29 ZM 43.78 16.32 Q 52.95 50.08 62.21 80.36 Q 53.96 49.79 43.78 16.32 ZM 41.98 15.82 Q 52.45 54.66 60.59 81.66 Q 53.39 54.39 41.98 15.82 ZM 40.35 16.28 Q 51.05 54.80 57.81 76.51 Q 51.92 54.55 40.35 16.28 ZM 39.06 15.62 Q 46.49 44.30 58.25 84.97 Q 47.44 44.04 39.06 15.62 ZM 37.48 18.72 Q 48.57 57.93 56.27 82.47 Q 49.42 57.68 37.48 18.72 ZM 35.33 18.61 Q 45.21 53.12 53.53 78.60 Q 46.28 52.79 35.33 18.61 ZM 33.91 17.33 Q 42.33 48.20 51.91 80.22 Q 43.11 47.98 33.91 17.33 ZM 31.52 13.88 Q 37.82 37.97 49.80 78.76 Q 38.73 37.71 31.52 13.88 ZM 29.27 13.13 Q 41.26 56.09 50.91 86.94 Q 42.38 55.76 29.27 13.13 ZM 28.83 17.08 Q 38.17 51.63 48.55 85.55 Q 39.30 51.30 28.83 17.08 ZM 28.10 19.51 Q 38.18 56.89 47.46 87.33 Q 39.27 56.57 28.10 19.51 ZM 24.87 14.52 Q 35.43 53.42 46.13 90.06 Q 36.15 53.22 24.87 14.52 ZM 23.03 14.78 Q 34.04 55.73 44.74 92.16 Q 34.93 55.48 23.03 14.78 ZM 22.37 21.31 Q 32.30 55.96 43.35 91.13 Q 33.18 55.70 22.37 21.31 ZM 18.66 14.33 Q 27.86 47.09 39.49 85.68 Q 28.53 46.89 18.66 14.33 ZM 18.84 21.37 Q 31.43 65.55 39.87 92.57 Q 32.28 65.30 18.84 21.37 ZM 15.51 15.58 Q 24.43 48.06 36.32 86.57 Q 25.54 47.74 15.51 15.58 ZM 16.18 22.14 Q 24.43 53.71 33.74 86.49 Q 25.11 53.52 16.18 22.14 Z"/></g><clipPath id="e2123"><path d="M 54.94 35 C 59.5 33, 65.58 34, 66.34 37 C 65.2 41, 58.55 42, 54.94 40 Z M 45.06 35 C 40.5 33, 34.42 34, 33.66 37 C 34.8 41, 41.45 42, 45.06 40 Z"/></clipPath><g clip-path="url(#e2123)" fill="#1b1b1a"><path d="M 34.08 -1.61 Q 53.22 4.28 89.36 14.18 Q 53.44 3.50 34.08 -1.61 ZM 31.67 -0.87 Q 54.76 6.39 85.33 14.56 Q 55.09 5.25 31.67 -0.87 ZM 32.75 1.04 Q 64.61 10.90 81.95 15.38 Q 64.92 9.85 32.75 1.04 ZM 30.83 1.80 Q 59.52 10.94 89.27 19.54 Q 59.76 10.15 30.83 1.80 ZM 31.17 3.85 Q 62.81 13.22 85.90 19.35 Q 63.03 12.47 31.17 3.85 ZM 26.39 3.90 Q 63.13 15.20 87.95 21.92 Q 63.43 14.19 26.39 3.90 ZM 26.06 5.15 Q 47.10 11.93 84.62 22.55 Q 47.39 10.96 26.06 5.15 ZM 28.96 7.95 Q 55.70 15.77 88.16 24.23 Q 55.94 14.90 28.96 7.95 ZM 24.59 7.49 Q 55.73 17.35 81.83 24.75 Q 55.99 16.49 24.59 7.49 ZM 30.54 10.93 Q 56.18 18.87 79.64 25.20 Q 56.44 17.96 30.54 10.93 ZM 27.75 12.11 Q 61.43 21.96 86.29 28.24 Q 61.72 20.90 27.75 12.11 ZM 26.48 13.30 Q 48.58 19.89 81.09 28.14 Q 48.88 18.80 26.48 13.30 ZM 26.97 14.73 Q 59.71 24.00 78.24 28.59 Q 59.92 23.22 26.97 14.73 ZM 29.31 16.75 Q 60.35 26.09 83.66 32.13 Q 60.64 25.05 29.31 16.75 ZM 28.66 18.12 Q 48.54 24.31 80.70 32.76 Q 48.85 23.20 28.66 18.12 ZM 21.61 17.42 Q 58.27 28.36 78.59 33.43 Q 58.60 27.17 21.61 17.42 ZM 22.52 19.42 Q 55.46 29.04 78.94 34.81 Q 55.78 27.86 22.52 19.42 ZM 25.91 21.45 Q 54.05 30.05 77.12 35.93 Q 54.38 28.87 25.91 21.45 ZM 23.84 21.80 Q 61.75 33.84 81.99 39.35 Q 62.08 32.75 23.84 21.80 ZM 26.75 24.22 Q 52.06 32.34 79.37 39.95 Q 52.36 31.32 26.75 24.22 ZM 27.80 26.31 Q 53.14 34.13 76.29 40.51 Q 53.35 33.40 27.80 26.31 ZM 27.61 27.81 Q 48.45 34.51 79.40 43.35 Q 48.70 33.69 27.61 27.81 ZM 20.77 27.80 Q 56.96 38.70 79.80 44.65 Q 57.26 37.65 20.77 27.80 ZM 22.15 29.20 Q 54.77 39.36 80.75 46.50 Q 55.05 38.38 22.15 29.20 ZM 17.90 29.70 Q 49.96 39.26 78.51 46.69 Q 50.26 38.20 17.90 29.70 ZM 19.45 31.99 Q 54.99 42.20 79.98 48.36 Q 55.29 41.08 19.45 31.99 ZM 16.98 32.24 Q 44.28 40.42 73.52 48.26 Q 44.51 39.60 16.98 32.24 ZM 19.73 33.99 Q 41.30 40.79 76.72 50.93 Q 41.51 40.08 19.73 33.99 ZM 16.62 35.17 Q 45.56 43.75 74.70 51.63 Q 45.76 43.05 16.62 35.17 ZM 16.05 36.92 Q 48.70 46.45 78.67 54.26 Q 48.95 45.54 16.05 36.92 ZM 18.36 39.28 Q 48.64 48.00 72.33 54.16 Q 48.83 47.30 18.36 39.28 ZM 20.50 41.00 Q 42.52 48.09 74.00 56.64 Q 42.87 46.89 20.50 41.00 ZM 22.64 43.27 Q 56.66 53.40 76.08 58.49 Q 56.90 52.57 22.64 43.27 ZM 16.16 42.19 Q 39.55 49.72 77.61 60.79 Q 39.80 48.89 16.16 42.19 ZM 14.32 43.85 Q 42.72 52.04 69.18 58.95 Q 42.91 51.35 14.32 43.85 ZM 18.30 46.43 Q 39.65 52.83 73.94 62.01 Q 39.86 52.05 18.30 46.43 ZM 16.32 47.69 Q 43.12 55.51 70.13 62.58 Q 43.33 54.76 16.32 47.69 ZM 16.99 49.00 Q 50.20 58.88 75.45 65.73 Q 50.40 58.19 16.99 49.00 ZM 13.97 49.68 Q 41.89 57.93 70.65 65.64 Q 42.10 57.20 13.97 49.68 ZM 20.44 53.13 Q 43.32 59.84 72.42 67.39 Q 43.53 59.04 20.44 53.13 ZM 14.83 52.90 Q 47.40 62.29 68.40 67.51 Q 47.65 61.34 14.83 52.90 ZM 15.31 54.05 Q 48.13 64.26 66.94 69.26 Q 48.43 63.26 15.31 54.05 ZM 11.84 55.50 Q 44.89 64.97 73.36 72.10 Q 45.17 63.93 11.84 55.50 ZM 15.22 58.03 Q 40.70 65.40 73.72 73.87 Q 40.94 64.52 15.22 58.03 ZM 17.56 59.51 Q 37.92 66.05 66.68 74.37 Q 38.13 65.35 17.56 59.51 ZM 11.10 59.73 Q 38.76 67.87 72.65 76.73 Q 39.01 66.95 11.10 59.73 ZM 13.48 61.17 Q 44.08 70.80 68.97 77.61 Q 44.39 69.76 13.48 61.17 Z"/><path d="M 72.24 0.58 Q 82.29 29.55 91.71 55.94 Q 82.54 29.46 72.24 0.58 ZM 68.00 -0.05 Q 76.70 23.28 89.03 55.16 Q 77.02 23.16 68.00 -0.05 ZM 67.16 4.97 Q 74.23 24.80 86.16 56.72 Q 74.60 24.66 67.16 4.97 ZM 60.86 -0.88 Q 68.09 18.77 80.90 52.31 Q 68.40 18.65 60.86 -0.88 ZM 58.55 -0.32 Q 65.04 18.65 77.40 53.75 Q 65.26 18.57 58.55 -0.32 ZM 57.44 7.40 Q 64.63 27.59 74.54 54.58 Q 64.86 27.51 57.44 7.40 ZM 53.41 7.07 Q 65.02 39.71 72.85 60.90 Q 65.33 39.60 53.41 7.07 ZM 51.43 9.27 Q 61.84 39.45 70.18 62.62 Q 62.19 39.32 51.43 9.27 ZM 46.44 6.65 Q 54.06 27.70 67.84 64.30 Q 54.40 27.57 46.44 6.65 ZM 44.25 9.88 Q 54.43 38.48 62.17 59.45 Q 54.71 38.38 44.25 9.88 ZM 39.02 7.05 Q 48.57 33.67 59.98 64.45 Q 48.86 33.56 39.02 7.05 ZM 35.90 7.86 Q 46.91 39.13 56.38 65.32 Q 47.15 39.04 35.90 7.86 ZM 35.06 16.68 Q 44.50 42.08 54.39 67.57 Q 44.87 41.94 35.06 16.68 ZM 30.06 11.95 Q 38.52 35.41 51.02 69.03 Q 38.80 35.31 30.06 11.95 ZM 28.44 16.73 Q 36.64 40.02 46.84 68.12 Q 36.89 39.93 28.44 16.73 ZM 25.09 19.67 Q 36.34 50.27 43.86 70.01 Q 36.62 50.17 25.09 19.67 ZM 21.38 16.90 Q 30.05 41.70 39.74 68.17 Q 30.41 41.57 21.38 16.90 ZM 20.07 22.34 Q 28.78 47.99 37.92 73.67 Q 29.16 47.86 20.07 22.34 ZM 14.01 18.86 Q 21.31 38.61 35.74 76.36 Q 21.60 38.51 14.01 18.86 ZM 12.21 24.52 Q 22.82 53.70 30.31 73.46 Q 23.14 53.58 12.21 24.52 Z"/></g><clipPath id="e2124"><path d="M 50 38 L 54.4 52 L 50 55 L 48.4 52 Z"/></clipPath><g clip-path="url(#e2124)" fill="#1b1b1a"><path d="M 66.06 32.35 Q 66.59 43.04 68.84 58.35 Q 67.80 42.91 66.06 32.35 ZM 64.63 31.66 Q 66.05 49.13 67.82 59.06 Q 67.26 48.99 64.63 31.66 ZM 63.38 34.42 Q 64.22 47.83 65.81 56.96 Q 65.43 47.70 63.38 34.42 ZM 61.51 31.45 Q 62.56 45.56 64.51 61.08 Q 63.32 45.48 61.51 31.45 ZM 60.21 31.24 Q 60.75 42.09 63.14 60.90 Q 61.80 41.98 60.21 31.24 ZM 58.68 30.91 Q 59.63 46.00 61.71 61.50 Q 60.71 45.89 58.68 30.91 ZM 57.31 30.84 Q 59.06 50.58 60.61 61.55 Q 59.79 50.50 57.31 30.84 ZM 56.47 33.53 Q 57.09 45.09 58.79 59.08 Q 57.94 45.01 56.47 33.53 ZM 54.77 32.36 Q 55.36 43.67 57.22 59.49 Q 56.22 43.59 54.77 32.36 ZM 53.55 34.37 Q 54.43 49.37 56.23 61.71 Q 55.61 49.26 53.55 34.37 ZM 51.77 33.80 Q 53.32 50.75 55.07 62.12 Q 54.16 50.66 51.77 33.80 ZM 50.24 32.55 Q 51.00 44.48 53.00 59.15 Q 51.95 44.38 50.24 32.55 ZM 49.00 35.50 Q 49.62 45.44 51.98 61.60 Q 50.63 45.33 49.00 35.50 ZM 47.57 32.57 Q 48.36 44.53 50.74 62.65 Q 49.29 44.43 47.57 32.57 ZM 46.21 32.23 Q 46.95 45.25 49.06 62.58 Q 47.91 45.16 46.21 32.23 ZM 45.22 35.42 Q 45.68 45.61 47.36 58.81 Q 46.62 45.53 45.22 35.42 ZM 43.93 34.72 Q 44.86 49.16 46.13 59.29 Q 45.58 49.10 43.93 34.72 ZM 42.45 36.09 Q 42.88 45.50 45.32 62.89 Q 44.01 45.38 42.45 36.09 ZM 40.88 35.94 Q 41.39 44.38 43.31 59.44 Q 42.10 44.30 40.88 35.94 ZM 39.59 36.64 Q 40.06 46.17 41.99 61.42 Q 40.95 46.09 39.59 36.64 ZM 37.58 33.75 Q 38.80 50.90 40.36 61.57 Q 39.78 50.81 37.58 33.75 ZM 36.31 34.03 Q 36.97 45.85 38.89 62.21 Q 37.80 45.77 36.31 34.03 Z"/><path d="M 72.34 49.47 Q 63.34 57.45 53.60 66.58 Q 63.57 57.71 72.34 49.47 ZM 70.36 46.80 Q 62.65 53.36 50.97 63.98 Q 62.92 53.67 70.36 46.80 ZM 69.11 43.68 Q 58.73 52.93 49.72 61.41 Q 58.97 53.20 69.11 43.68 ZM 66.72 41.54 Q 54.43 52.67 45.40 61.13 Q 54.60 52.84 66.72 41.54 ZM 64.67 38.21 Q 52.05 49.56 44.30 56.84 Q 52.24 49.76 64.67 38.21 ZM 61.78 35.75 Q 48.95 47.32 41.90 53.93 Q 49.11 47.49 61.78 35.75 ZM 58.50 33.97 Q 51.33 40.12 39.59 50.90 Q 51.59 40.42 58.50 33.97 ZM 56.33 31.80 Q 47.85 39.36 37.08 49.38 Q 48.03 39.56 56.33 31.80 ZM 52.33 30.56 Q 46.11 35.98 35.01 46.40 Q 46.38 36.27 52.33 30.56 ZM 51.56 27.32 Q 40.30 37.37 33.58 43.78 Q 40.55 37.65 51.56 27.32 Z"/></g></g><path d="M 50 17 C 66.34 18, 69 30, 69 41 C 69 51, 63.68 59.040000000000006, 50 69.12 C 36.32 59.040000000000006, 31 51, 31 41 C 31 30, 33.66 18, 50 17 Z" fill="none" stroke="#1b1b1a" stroke-width="0.378" stroke-linejoin="round" stroke-linecap="round"/><clipPath id="e2125"><path d="M 50 16 C 72 16, 74 40, 72 64 L 67 60 C 69 40, 59.5 24, 50 24 C 40.5 24, 31 40, 33 60 L 28 64 C 26 40, 28 16, 50 16 Z"/></clipPath><g clip-path="url(#e2125)" fill="#1b1b1a"><path d="M 112.09 -26.02 Q 118.67 48.07 123.58 91.52 Q 119.98 47.94 112.09 -26.02 ZM 110.60 -22.96 Q 116.90 38.70 124.21 96.30 Q 118.36 38.54 110.60 -22.96 ZM 110.96 -14.92 Q 117.70 54.46 122.31 94.85 Q 118.57 54.37 110.96 -14.92 ZM 109.98 -14.41 Q 115.40 43.79 122.06 102.27 Q 116.60 43.67 109.98 -14.41 ZM 109.57 -15.63 Q 113.97 37.48 120.26 99.82 Q 115.00 37.38 109.57 -15.63 ZM 108.37 -17.70 Q 111.70 26.26 118.36 91.68 Q 113.06 26.13 108.37 -17.70 ZM 105.18 -27.38 Q 109.68 15.74 119.42 96.50 Q 110.58 15.64 105.18 -27.38 ZM 105.03 -31.29 Q 110.53 29.22 117.93 100.63 Q 111.36 29.14 105.03 -31.29 ZM 102.72 -31.78 Q 111.27 44.94 117.51 93.91 Q 112.21 44.83 102.72 -31.78 ZM 104.37 -13.68 Q 111.15 54.05 115.85 91.78 Q 112.32 53.92 104.37 -13.68 ZM 102.61 -28.69 Q 107.02 23.71 114.41 96.61 Q 108.05 23.61 102.61 -28.69 ZM 101.05 -20.16 Q 105.89 23.76 114.61 93.10 Q 106.72 23.66 101.05 -20.16 ZM 100.46 -18.24 Q 106.35 38.11 114.60 103.62 Q 107.63 37.96 100.46 -18.24 ZM 98.99 -28.72 Q 103.25 17.54 112.42 98.75 Q 104.46 17.41 98.99 -28.72 ZM 97.54 -28.01 Q 106.36 55.57 111.93 100.25 Q 107.46 55.45 97.54 -28.01 ZM 98.81 -17.29 Q 102.10 22.29 109.24 93.07 Q 102.99 22.20 98.81 -17.29 ZM 95.27 -27.30 Q 104.28 53.03 110.32 100.36 Q 105.18 52.92 95.27 -27.30 ZM 96.46 -18.25 Q 103.06 55.80 107.83 98.23 Q 104.31 55.68 96.46 -18.25 ZM 94.17 -25.33 Q 100.19 37.30 107.20 96.78 Q 101.50 37.16 94.17 -25.33 ZM 94.30 -24.95 Q 98.60 26.92 106.18 103.74 Q 99.57 26.83 94.30 -24.95 ZM 92.91 -14.92 Q 98.04 33.79 105.01 87.29 Q 99.30 33.64 92.91 -14.92 ZM 90.49 -27.44 Q 95.75 21.60 104.15 87.06 Q 96.92 21.46 90.49 -27.44 ZM 91.45 -14.27 Q 95.32 24.87 104.12 95.80 Q 96.57 24.73 91.45 -14.27 ZM 90.06 -15.23 Q 96.13 41.30 103.42 96.15 Q 97.53 41.14 90.06 -15.23 ZM 89.83 -19.86 Q 97.06 60.82 102.02 103.55 Q 98.53 60.67 89.83 -19.86 ZM 88.98 -18.52 Q 95.19 49.64 100.84 102.83 Q 96.08 49.55 88.98 -18.52 ZM 86.06 -26.47 Q 92.55 32.78 100.55 97.56 Q 93.40 32.68 86.06 -26.47 ZM 86.73 -20.95 Q 93.34 48.94 98.21 91.08 Q 94.44 48.83 86.73 -20.95 ZM 85.21 -21.77 Q 91.39 39.08 98.75 98.69 Q 92.68 38.93 85.21 -21.77 ZM 84.98 -14.72 Q 92.43 56.27 97.46 96.09 Q 93.51 56.15 84.98 -14.72 ZM 82.25 -29.47 Q 87.14 19.07 97.20 103.69 Q 88.25 18.95 82.25 -29.47 ZM 81.76 -20.90 Q 88.80 41.28 94.83 87.21 Q 89.75 41.17 81.76 -20.90 ZM 82.06 -19.56 Q 85.11 18.04 92.71 87.44 Q 86.48 17.91 82.06 -19.56 ZM 80.97 -13.91 Q 87.47 48.16 94.24 102.20 Q 88.65 48.03 80.97 -13.91 ZM 79.38 -20.65 Q 83.53 21.09 93.37 101.54 Q 84.77 20.95 79.38 -20.65 ZM 79.45 -19.48 Q 85.93 50.20 90.56 92.66 Q 86.77 50.12 79.45 -19.48 ZM 77.56 -27.08 Q 84.29 44.94 89.18 88.28 Q 85.33 44.83 77.56 -27.08 ZM 77.37 -26.27 Q 84.18 54.19 89.17 101.67 Q 85.38 54.07 77.37 -26.27 ZM 76.64 -16.73 Q 82.23 43.87 89.17 106.13 Q 83.39 43.76 76.64 -16.73 ZM 74.80 -17.51 Q 79.42 25.59 89.48 106.35 Q 80.39 25.48 74.80 -17.51 ZM 74.28 -19.28 Q 78.33 25.39 86.23 92.33 Q 79.78 25.23 74.28 -19.28 ZM 73.70 -20.20 Q 78.24 32.38 85.57 102.54 Q 79.32 32.27 73.70 -20.20 ZM 72.74 -11.31 Q 76.37 24.93 84.86 94.70 Q 77.38 24.82 72.74 -11.31 ZM 71.47 -13.45 Q 78.36 51.62 85.10 103.00 Q 79.80 51.46 71.47 -13.45 ZM 71.10 -22.06 Q 75.90 39.42 80.97 88.35 Q 77.28 39.30 71.10 -22.06 ZM 69.31 -20.04 Q 76.04 49.85 81.26 92.45 Q 77.40 49.70 69.31 -20.04 ZM 68.50 -27.60 Q 72.75 24.72 80.75 107.31 Q 73.74 24.63 68.50 -27.60 ZM 66.62 -27.11 Q 72.34 33.08 78.64 88.91 Q 73.36 32.97 66.62 -27.11 ZM 66.31 -12.96 Q 73.00 47.98 80.20 102.06 Q 74.32 47.82 66.31 -12.96 ZM 66.03 -12.93 Q 70.24 33.14 76.85 89.78 Q 71.52 33.00 66.03 -12.93 ZM 65.38 -15.01 Q 70.07 41.69 76.39 101.74 Q 71.38 41.57 65.38 -15.01 ZM 64.35 -14.17 Q 67.86 28.39 76.13 107.69 Q 69.06 28.28 64.35 -14.17 ZM 62.36 -20.15 Q 69.05 51.16 73.96 91.53 Q 70.46 51.01 62.36 -20.15 ZM 60.38 -27.50 Q 68.61 52.97 74.52 101.70 Q 69.75 52.85 60.38 -27.50 ZM 60.08 -24.20 Q 66.97 47.49 73.79 105.45 Q 68.33 47.34 60.08 -24.20 ZM 58.80 -23.46 Q 64.89 35.18 73.50 106.75 Q 65.93 35.06 58.80 -23.46 ZM 58.26 -25.93 Q 62.34 17.60 71.29 98.62 Q 63.27 17.50 58.26 -25.93 ZM 59.52 -11.92 Q 63.04 34.34 69.11 93.75 Q 64.38 34.21 59.52 -11.92 ZM 58.79 -9.40 Q 64.21 56.04 69.18 102.49 Q 65.51 55.92 58.79 -9.40 ZM 55.09 -21.85 Q 60.58 30.66 69.62 102.78 Q 61.83 30.52 55.09 -21.85 ZM 55.90 -14.26 Q 60.82 38.85 67.45 100.70 Q 61.65 38.77 55.90 -14.26 ZM 55.21 -17.52 Q 60.53 48.21 66.35 105.15 Q 61.82 48.09 55.21 -17.52 ZM 53.70 -17.47 Q 59.43 45.45 65.44 99.79 Q 60.56 45.34 53.70 -17.47 ZM 52.93 -19.94 Q 56.62 28.29 64.67 108.02 Q 58.08 28.15 52.93 -19.94 ZM 51.33 -17.14 Q 58.35 54.20 63.70 100.14 Q 59.34 54.09 51.33 -17.14 ZM 49.23 -20.11 Q 58.02 58.20 63.59 99.72 Q 59.19 58.06 49.23 -20.11 ZM 49.22 -17.65 Q 53.25 24.46 61.84 99.10 Q 54.27 24.35 49.22 -17.65 ZM 48.39 -23.08 Q 54.43 44.70 61.23 107.78 Q 55.64 44.58 48.39 -23.08 ZM 48.55 -13.30 Q 53.65 44.25 60.09 105.66 Q 54.61 44.16 48.55 -13.30 ZM 48.14 -10.37 Q 50.93 27.32 57.83 93.66 Q 52.36 27.19 48.14 -10.37 ZM 45.50 -22.05 Q 51.52 42.31 58.52 102.94 Q 52.87 42.17 45.50 -22.05 ZM 44.24 -18.68 Q 50.39 39.37 57.64 99.45 Q 51.25 39.27 44.24 -18.68 ZM 44.61 -9.85 Q 48.88 37.14 55.50 92.42 Q 50.33 36.99 44.61 -9.85 ZM 42.79 -21.66 Q 47.23 29.57 54.93 101.18 Q 48.47 29.45 42.79 -21.66 ZM 42.64 -15.45 Q 47.13 35.58 53.26 94.21 Q 48.03 35.49 42.64 -15.45 ZM 41.75 -15.08 Q 46.48 38.97 52.76 97.16 Q 47.60 38.86 41.75 -15.08 ZM 38.95 -20.33 Q 44.32 30.81 52.99 99.06 Q 45.59 30.66 38.95 -20.33 ZM 40.08 -6.94 Q 46.45 58.82 51.44 99.22 Q 47.76 58.68 40.08 -6.94 ZM 37.09 -20.87 Q 42.58 32.25 50.79 99.74 Q 43.64 32.13 37.09 -20.87 ZM 38.49 -8.44 Q 43.80 54.37 49.80 110.31 Q 45.13 54.25 38.49 -8.44 ZM 36.87 -13.72 Q 41.15 35.64 47.95 100.79 Q 42.13 35.55 36.87 -13.72 ZM 34.53 -19.12 Q 41.98 53.85 48.54 109.45 Q 42.97 53.74 34.53 -19.12 ZM 34.46 -18.49 Q 40.90 53.61 46.75 110.32 Q 41.77 53.52 34.46 -18.49 ZM 32.77 -16.18 Q 36.88 25.72 45.98 100.05 Q 38.16 25.57 32.77 -16.18 ZM 32.72 -12.87 Q 37.50 39.23 44.48 98.90 Q 38.89 39.08 32.72 -12.87 ZM 32.40 -5.75 Q 36.23 33.96 43.12 93.63 Q 37.12 33.86 32.40 -5.75 ZM 30.16 -17.24 Q 33.85 21.26 42.12 93.94 Q 34.75 21.16 30.16 -17.24 ZM 28.73 -20.90 Q 35.47 47.43 41.49 96.18 Q 36.88 47.27 28.73 -20.90 ZM 29.59 -11.59 Q 33.00 32.86 39.34 92.82 Q 34.47 32.72 29.59 -11.59 ZM 27.20 -11.75 Q 33.94 48.29 41.72 108.73 Q 34.91 48.17 27.20 -11.75 ZM 26.63 -20.90 Q 31.53 35.35 39.42 110.18 Q 32.69 35.24 26.63 -20.90 ZM 26.13 -15.91 Q 31.08 41.80 36.80 95.66 Q 32.20 41.69 26.13 -15.91 ZM 24.70 -18.75 Q 30.07 41.68 36.62 103.39 Q 31.11 41.58 24.70 -18.75 ZM 24.19 -9.38 Q 29.81 49.41 35.14 96.06 Q 30.77 49.31 24.19 -9.38 ZM 23.00 -9.44 Q 27.76 39.43 36.13 110.78 Q 28.90 39.30 23.00 -9.44 ZM 21.22 -15.08 Q 28.87 59.37 35.22 110.73 Q 30.12 59.23 21.22 -15.08 ZM 21.25 -18.53 Q 26.15 42.18 32.31 102.18 Q 27.46 42.06 21.25 -18.53 ZM 20.61 -12.27 Q 26.11 51.04 31.78 102.25 Q 27.45 50.91 20.61 -12.27 ZM 18.43 -20.17 Q 24.53 45.17 30.31 94.09 Q 25.90 45.03 18.43 -20.17 ZM 17.03 -18.29 Q 25.30 57.40 31.23 103.96 Q 26.34 57.28 17.03 -18.29 ZM 16.86 -18.96 Q 22.60 40.56 29.00 97.33 Q 23.55 40.46 16.86 -18.96 ZM 14.84 -20.92 Q 23.50 56.88 29.70 104.48 Q 24.60 56.74 14.84 -20.92 ZM 15.30 -17.80 Q 22.73 61.98 28.01 106.91 Q 24.11 61.84 15.30 -17.80 ZM 14.40 -17.58 Q 20.46 46.08 26.72 102.48 Q 21.40 45.98 14.40 -17.58 ZM 14.12 -14.50 Q 20.02 50.90 25.37 100.36 Q 21.01 50.81 14.12 -14.50 ZM 12.80 -8.82 Q 19.18 52.49 24.67 95.67 Q 20.34 52.36 12.80 -8.82 ZM 12.67 -9.96 Q 18.49 59.03 22.94 98.34 Q 19.91 58.89 12.67 -9.96 ZM 11.51 -11.92 Q 17.71 57.48 23.23 110.92 Q 18.54 57.40 11.51 -11.92 ZM 11.04 -7.82 Q 16.29 53.59 21.26 98.87 Q 17.54 53.47 11.04 -7.82 ZM 8.91 -11.61 Q 14.43 43.59 20.96 97.23 Q 15.59 43.46 8.91 -11.61 ZM 9.43 -7.06 Q 12.18 29.29 19.18 96.64 Q 13.51 29.16 9.43 -7.06 ZM 7.38 -10.59 Q 11.86 35.87 19.70 102.62 Q 13.00 35.75 7.38 -10.59 ZM 4.92 -21.04 Q 10.12 30.27 18.29 96.94 Q 11.34 30.14 4.92 -21.04 ZM 5.65 -10.35 Q 11.82 53.76 17.80 103.67 Q 13.13 53.62 5.65 -10.35 ZM 5.41 -8.91 Q 12.03 64.95 17.08 109.11 Q 13.38 64.82 5.41 -8.91 ZM 3.62 -18.78 Q 7.75 27.60 15.45 100.52 Q 8.67 27.51 3.62 -18.78 ZM 4.13 -8.50 Q 9.20 55.69 14.73 108.74 Q 10.66 55.56 4.13 -8.50 ZM 1.52 -11.16 Q 6.30 34.23 14.15 98.30 Q 7.20 34.12 1.52 -11.16 ZM 1.66 -2.64 Q 6.72 48.28 13.66 106.18 Q 7.81 48.16 1.66 -2.64 ZM -0.19 -6.48 Q 4.36 36.35 13.23 106.45 Q 5.43 36.22 -0.19 -6.48 ZM 0.29 -5.75 Q 3.61 37.56 9.66 96.10 Q 4.93 37.44 0.29 -5.75 ZM -2.49 -14.83 Q 2.17 32.89 11.34 114.83 Q 3.02 32.80 -2.49 -14.83 ZM -4.32 -20.80 Q 3.22 52.83 9.66 105.21 Q 4.46 52.70 -4.32 -20.80 ZM -3.25 -14.57 Q 1.62 45.73 7.75 107.81 Q 2.71 45.63 -3.25 -14.57 ZM -3.94 -11.04 Q 0.74 45.28 6.21 97.65 Q 1.88 45.17 -3.94 -11.04 ZM -4.84 -12.43 Q 0.24 50.90 5.89 107.34 Q 1.41 50.80 -4.84 -12.43 ZM -6.14 -10.93 Q -2.87 29.88 5.30 106.90 Q -1.50 29.75 -6.14 -10.93 ZM -8.66 -18.90 Q -0.85 57.32 6.00 113.32 Q 0.43 57.17 -8.66 -18.90 ZM -8.44 -5.15 Q -3.39 43.15 4.45 102.49 Q -1.94 42.97 -8.44 -5.15 ZM -10.51 -20.32 Q -1.28 67.84 4.41 114.37 Q -0.23 67.72 -10.51 -20.32 ZM -10.47 -9.16 Q -4.16 50.06 3.79 115.05 Q -3.21 49.95 -10.47 -9.16 ZM -10.84 -10.64 Q -3.22 70.32 1.73 113.54 Q -2.08 70.20 -10.84 -10.64 ZM -13.33 -13.83 Q -6.89 44.82 1.62 112.31 Q -5.89 44.70 -13.33 -13.83 ZM -14.60 -16.39 Q -5.52 64.41 0.69 111.52 Q -4.37 64.27 -14.60 -16.39 ZM -14.41 -10.24 Q -9.74 34.85 -0.82 109.45 Q -8.84 34.75 -14.41 -10.24 ZM -13.69 -5.39 Q -7.15 72.40 -2.61 113.51 Q -5.75 72.27 -13.69 -5.39 ZM -14.86 -1.98 Q -9.01 58.91 -2.50 115.09 Q -7.86 58.79 -14.86 -1.98 ZM -15.82 -9.79 Q -9.96 60.72 -5.78 101.34 Q -8.94 60.63 -15.82 -9.79 ZM -19.23 -15.90 Q -9.89 67.56 -3.76 113.19 Q -8.59 67.41 -19.23 -15.90 ZM -17.99 -11.23 Q -13.19 49.45 -6.67 112.99 Q -11.75 49.32 -17.99 -11.23 ZM -20.31 -10.75 Q -16.21 30.05 -7.43 102.24 Q -15.13 29.92 -20.31 -10.75 ZM -21.25 -16.03 Q -15.22 45.17 -8.55 103.76 Q -14.32 45.08 -21.25 -16.03 ZM -21.66 -7.21 Q -16.47 42.02 -8.56 106.95 Q -15.57 41.92 -21.66 -7.21 ZM -21.99 -10.45 Q -17.68 39.16 -9.97 110.43 Q -16.45 39.04 -21.99 -10.45 ZM -24.23 -12.48 Q -18.99 36.25 -10.72 103.73 Q -18.15 36.15 -24.23 -12.48 ZM -23.42 -2.83 Q -18.05 53.58 -12.78 99.20 Q -17.04 53.47 -23.42 -2.83 Z"/><path d="M 144.32 49.28 Q 111.48 78.29 50.38 133.58 Q 111.94 78.80 144.32 49.28 ZM 131.43 55.95 Q 103.00 81.87 52.59 128.98 Q 103.41 82.32 131.43 55.95 ZM 129.37 55.58 Q 92.27 88.05 51.62 124.47 Q 92.68 88.51 129.37 55.58 ZM 134.06 46.39 Q 89.19 87.01 40.41 132.09 Q 89.62 87.48 134.06 46.39 ZM 127.10 48.83 Q 89.44 82.85 48.02 121.03 Q 89.80 83.25 127.10 48.83 ZM 125.16 47.43 Q 91.79 77.54 37.04 127.83 Q 92.12 77.90 125.16 47.43 ZM 121.25 47.42 Q 75.74 88.93 46.91 115.78 Q 76.08 89.30 121.25 47.42 ZM 130.53 36.17 Q 73.86 87.46 40.45 118.31 Q 74.24 87.88 130.53 36.17 ZM 123.92 39.26 Q 84.52 73.82 33.71 119.37 Q 84.95 74.30 123.92 39.26 ZM 123.42 36.72 Q 85.94 69.12 33.20 115.84 Q 86.40 69.64 123.42 36.72 ZM 120.39 34.60 Q 80.80 70.62 31.42 116.37 Q 81.16 71.02 120.39 34.60 ZM 127.17 25.60 Q 87.77 60.45 38.18 105.30 Q 88.21 60.94 127.17 25.60 ZM 116.16 30.83 Q 63.59 79.06 29.62 110.97 Q 64.04 79.55 116.16 30.83 ZM 119.24 24.75 Q 72.06 67.93 33.90 103.47 Q 72.40 68.30 119.24 24.75 ZM 116.47 25.22 Q 73.79 62.84 26.12 105.75 Q 74.21 63.32 116.47 25.22 ZM 119.62 18.97 Q 84.54 50.11 20.34 108.51 Q 85.04 50.66 119.62 18.97 ZM 105.95 27.72 Q 60.09 68.57 29.20 96.85 Q 60.55 69.08 105.95 27.72 ZM 109.99 19.89 Q 52.63 72.59 23.27 100.23 Q 53.08 73.07 109.99 19.89 ZM 108.95 19.00 Q 76.57 47.64 22.03 97.06 Q 77.01 48.13 108.95 19.00 ZM 110.23 14.59 Q 56.26 62.01 19.10 95.30 Q 56.63 62.43 110.23 14.59 ZM 100.61 17.93 Q 54.03 60.34 11.36 99.81 Q 54.35 60.69 100.61 17.93 ZM 100.87 16.02 Q 67.51 44.92 15.02 91.25 Q 67.84 45.30 100.87 16.02 ZM 104.18 6.74 Q 54.81 52.27 13.42 91.01 Q 55.12 52.60 104.18 6.74 ZM 96.70 10.67 Q 61.53 42.62 16.02 85.10 Q 62.03 43.16 96.70 10.67 ZM 97.39 7.26 Q 53.62 46.82 4.49 91.96 Q 53.97 47.20 97.39 7.26 ZM 90.19 10.42 Q 56.21 40.77 13.90 79.31 Q 56.54 41.14 90.19 10.42 ZM 94.15 4.07 Q 53.79 39.70 10.65 78.81 Q 54.28 40.25 94.15 4.07 ZM 92.96 2.42 Q 32.10 55.85 -0.99 85.55 Q 32.52 56.33 92.96 2.42 ZM 97.49 -4.63 Q 59.01 29.10 -1.00 82.44 Q 59.29 29.42 97.49 -4.63 ZM 85.92 0.64 Q 49.44 33.68 8.04 71.98 Q 49.82 34.09 85.92 0.64 ZM 82.09 1.43 Q 38.09 39.84 1.34 72.63 Q 38.47 40.28 82.09 1.43 ZM 88.86 -8.00 Q 30.96 42.22 -2.98 72.17 Q 31.28 42.58 88.86 -8.00 ZM 84.85 -9.21 Q 49.80 21.70 2.88 63.85 Q 50.13 22.07 84.85 -9.21 ZM 80.94 -9.47 Q 31.16 34.14 -11.53 72.41 Q 31.63 34.67 80.94 -9.47 ZM 77.45 -10.71 Q 28.73 32.88 -3.83 62.73 Q 29.15 33.35 77.45 -10.71 ZM 79.30 -15.63 Q 33.08 25.30 -2.96 57.79 Q 33.40 25.66 79.30 -15.63 ZM 73.10 -13.11 Q 20.01 33.45 -17.74 67.25 Q 20.41 33.90 73.10 -13.11 ZM 68.27 -11.50 Q 28.69 22.74 -15.83 61.97 Q 29.02 23.12 68.27 -11.50 ZM 66.39 -14.66 Q 11.83 34.39 -21.47 64.81 Q 12.12 34.71 66.39 -14.66 ZM 64.53 -17.10 Q 20.51 22.82 -12.13 53.02 Q 20.85 23.19 64.53 -17.10 ZM 68.03 -22.57 Q 28.21 11.93 -21.03 55.36 Q 28.55 12.32 68.03 -22.57 ZM 71.23 -30.71 Q 14.41 20.68 -16.01 48.72 Q 14.75 21.06 71.23 -30.71 ZM 67.38 -28.53 Q 32.56 1.60 -22.83 50.33 Q 32.86 1.95 67.38 -28.53 ZM 59.71 -26.16 Q 10.03 17.44 -16.81 41.58 Q 10.40 17.86 59.71 -26.16 ZM 55.60 -27.00 Q 12.40 11.40 -30.35 50.36 Q 12.88 11.93 55.60 -27.00 ZM 58.93 -34.25 Q 17.89 3.12 -28.39 46.06 Q 18.27 3.53 58.93 -34.25 ZM 58.70 -37.33 Q 17.16 0.28 -34.45 48.12 Q 17.65 0.82 58.70 -37.33 ZM 55.65 -36.94 Q 7.93 5.09 -26.75 36.42 Q 8.38 5.59 55.65 -36.94 ZM 61.86 -45.92 Q 24.16 -12.57 -29.95 36.44 Q 24.62 -12.05 61.86 -45.92 ZM 52.82 -40.43 Q 8.33 -1.37 -38.85 40.70 Q 8.65 -1.02 52.82 -40.43 ZM 51.54 -43.81 Q 20.73 -16.52 -36.85 35.75 Q 21.17 -16.03 51.54 -43.81 ZM 52.19 -48.69 Q 16.71 -16.74 -41.16 36.64 Q 17.19 -16.22 52.19 -48.69 ZM 51.76 -52.16 Q 19.57 -22.81 -42.08 34.88 Q 20.08 -22.26 51.76 -52.16 Z"/></g><path d="M 50 16 C 72 16, 74 40, 72 64 L 67 60 C 69 40, 59.5 24, 50 24 C 40.5 24, 31 40, 33 60 L 28 64 C 26 40, 28 16, 50 16 Z" fill="none" stroke="#1b1b1a" stroke-width="0.339" stroke-linejoin="round" stroke-linecap="round"/></svg>