<?xml version="1.0" encoding="UTF-8"?>
<!-- ハウス・レドラン　自我図 -->
<svg xmlns:xlink="http://www.w3.org/1999/xlink" class="ego" viewBox="0 0 174 60" xmlns="http://www.w3.org/2000/svg"><path d="M 97.50 30.00 L 141.84 30.00" stroke="#1b1b1a" stroke-width="0.7" fill="none"/><g transform="translate(119.67 30.00) rotate(-180.0)"><path d="M -1.32 -1.9800000000000002 L 2.4200000000000004 0 L -1.32 1.9800000000000002 Z" fill="#1b1b1a"/></g><a data-to="tribunal"><g transform="translate(142.44 22.80) scale(0.1200)"><path fill="#2c4470" fill-rule="evenodd" d="M 60 4.00 A 56 56 0 1 1 60 116.00 A 56 56 0 1 1 60 4.00 Z M 60 6.60 A 53.4 53.4 0 1 0 60 113.40 A 53.4 53.4 0 1 0 60 6.60 Z"/><path fill="#2c4470" fill-rule="evenodd" d="M 60 9.50 A 50.5 50.5 0 1 1 60 110.50 A 50.5 50.5 0 1 1 60 9.50 Z M 60 10.60 A 49.4 49.4 0 1 0 60 109.40 A 49.4 49.4 0 1 0 60 10.60 Z"/><g transform="translate(60,60) scale(1.1020) translate(-60,-60)"><path fill="#2c4470" fill-rule="evenodd" d="M 60 20.00 A 40 40 0 1 1 60 100.00 A 40 40 0 1 1 60 20.00 Z M 60 22.60 A 37.4 37.4 0 1 0 60 97.40 A 37.4 37.4 0 1 0 60 22.60 Z"/><path fill="#2c4470" fill-rule="evenodd" d="M60.00 30.00 L 70.39 54.00 L 85.98 75.00 L 60.00 72.00 L 34.02 75.00 L 49.61 54.00 Z"/><path fill="#2c4470" fill-rule="evenodd" d="M 60.00 18.00 m -2.6 0 a 2.6 2.6 0 1 0 5.2 0 a 2.6 2.6 0 1 0 -5.2 0"/><path fill="#2c4470" fill-rule="evenodd" d="M 96.37 81.00 m -2.6 0 a 2.6 2.6 0 1 0 5.2 0 a 2.6 2.6 0 1 0 -5.2 0"/><path fill="#2c4470" fill-rule="evenodd" d="M 23.63 81.00 m -2.6 0 a 2.6 2.6 0 1 0 5.2 0 a 2.6 2.6 0 1 0 -5.2 0"/></g><path fill="#eceae4" d="M 8 74.6 L 112 37.2 L 112 57.6 L 8 95 Z"/><path fill="#2c4470" d="M 10 78 L 110 42 L 110 53 L 10 89 Z"/></g></a><path d="M 76.50 30.00 L 32.16 30.00" stroke="#1b1b1a" stroke-width="0.6" fill="none"/><g transform="translate(54.33 30.00) rotate(180.0)"><path d="M -1.1 2.2 L 1.1 -2.2" stroke="#1b1b1a" stroke-width="0.8" fill="none"/></g><a data-to="telvanni"><g transform="translate(17.16 22.80) scale(0.1200)"><path fill="#6b563a" fill-rule="evenodd" d="M 60 4.00 A 56 56 0 1 1 60 116.00 A 56 56 0 1 1 60 4.00 Z M 60 6.60 A 53.4 53.4 0 1 0 60 113.40 A 53.4 53.4 0 1 0 60 6.60 Z"/><path fill="#6b563a" fill-rule="evenodd" d="M 60 9.50 A 50.5 50.5 0 1 1 60 110.50 A 50.5 50.5 0 1 1 60 9.50 Z M 60 10.60 A 49.4 49.4 0 1 0 60 109.40 A 49.4 49.4 0 1 0 60 10.60 Z"/><g transform="translate(60,60) scale(0.8599) translate(-60,-60)"><path fill="#6b563a" fill-rule="evenodd" d="M 22 52 C 24 32, 40 20, 60 20 C 80 20, 96 32, 98 52 C 84 46, 70 44, 60 44 C 50 44, 36 46, 22 52 Z"/><path fill="#6b563a" fill-rule="evenodd" d="M 52 44 C 50 62, 48 78, 44 96 L 76 96 C 72 78, 70 62, 68 44 Z"/></g></g></a><g transform="translate(77 20) scale(0.1667)"><path fill="#1b1b1a" fill-rule="evenodd" d="M 60 4.00 A 56 56 0 1 1 60 116.00 A 56 56 0 1 1 60 4.00 Z M 60 6.60 A 53.4 53.4 0 1 0 60 113.40 A 53.4 53.4 0 1 0 60 6.60 Z"/><path fill="#1b1b1a" fill-rule="evenodd" d="M 60 9.50 A 50.5 50.5 0 1 1 60 110.50 A 50.5 50.5 0 1 1 60 9.50 Z M 60 10.60 A 49.4 49.4 0 1 0 60 109.40 A 49.4 49.4 0 1 0 60 10.60 Z"/><g transform="translate(60,60) scale(0.9621) translate(-60,-60)"><path fill="#1b1b1a" fill-rule="evenodd" d="M 60 22 C 78 29, 86 48, 84 67 C 82 86, 71 97, 60 97 C 49 97, 38 86, 36 67 C 34 48, 42 29, 60 22 Z M 45 42 L 75 42 L 73 49 L 47 49 Z M 42 57 L 78 57 L 76 64 L 44 64 Z M 45 72 L 75 72 L 73 79 L 47 79 Z"/></g></g></svg>